<svg width="20" height="20" viewBox="0 0 20 20" fill="none" xmlns="http://www.w3.org/2000/svg">
<path d="M4.16669 14.1667H3.33335C2.89133 14.1667 2.4674 13.9911 2.15484 13.6785C1.84228 13.366 1.66669 12.942 1.66669 12.5V4.16667C1.66669 3.72464 1.84228 3.30072 2.15484 2.98816C2.4674 2.67559 2.89133 2.5 3.33335 2.5H16.6667C17.1087 2.5 17.5326 2.67559 17.8452 2.98816C18.1578 3.30072 18.3334 3.72464 18.3334 4.16667V12.5C18.3334 12.942 18.1578 13.366 17.8452 13.6785C17.5326 13.9911 17.1087 14.1667 16.6667 14.1667H15.8334M10 12.5L14.1667 17.5H5.83335L10 12.5Z" stroke="currentColor" stroke-width="2" stroke-linecap="round" stroke-linejoin="round"/>
</svg>
