<svg width="40" height="40" viewBox="0 0 40 40" fill="none" xmlns="http://www.w3.org/2000/svg">
<path d="M20 13.3333C22.7614 13.3333 25 11.0947 25 8.33325C25 5.57183 22.7614 3.33325 20 3.33325C17.2386 3.33325 15 5.57183 15 8.33325C15 11.0947 17.2386 13.3333 20 13.3333ZM20 13.3333V36.6666M20 36.6666C15.5797 36.6666 11.3405 34.9106 8.21487 31.785C5.08926 28.6594 3.33331 24.4202 3.33331 19.9999H8.33331M20 36.6666C24.4203 36.6666 28.6595 34.9106 31.7851 31.785C34.9107 28.6594 36.6666 24.4202 36.6666 19.9999H31.6666" stroke="currentColor" stroke-width="3.5" stroke-linecap="round" stroke-linejoin="round"/>
</svg>
