<svg width="20" height="20" viewBox="0 0 20 20" fill="none" xmlns="http://www.w3.org/2000/svg">
<g clip-path="url(#clip0_3002_56826)">
<path d="M9.99999 6.66675C11.3807 6.66675 12.5 5.54746 12.5 4.16675C12.5 2.78604 11.3807 1.66675 9.99999 1.66675C8.61928 1.66675 7.49999 2.78604 7.49999 4.16675C7.49999 5.54746 8.61928 6.66675 9.99999 6.66675ZM9.99999 6.66675V18.3334M9.99999 18.3334C7.78985 18.3334 5.67024 17.4554 4.10743 15.8926C2.54463 14.3298 1.66666 12.2102 1.66666 10.0001H4.16666M9.99999 18.3334C12.2101 18.3334 14.3297 17.4554 15.8925 15.8926C17.4553 14.3298 18.3333 12.2102 18.3333 10.0001H15.8333" stroke="currentColor" stroke-width="2" stroke-linecap="round" stroke-linejoin="round"/>
</g>
<defs>
<clipPath id="clip0_3002_56826">
<rect width="20" height="20" fill="white"/>
</clipPath>
</defs>
</svg>
