<svg width="40" height="40" viewBox="0 0 40 40" fill="none" xmlns="http://www.w3.org/2000/svg">
<path d="M26.6666 13.3334V21.6668C26.6666 22.9929 27.1934 24.2646 28.1311 25.2023C29.0688 26.14 30.3405 26.6668 31.6666 26.6668C32.9927 26.6668 34.2645 26.14 35.2021 25.2023C36.1398 24.2646 36.6666 22.9929 36.6666 21.6668V20.0001C36.6664 16.2385 35.3936 12.5876 33.0554 9.64099C30.7171 6.69441 27.4509 4.62548 23.7877 3.7706C20.1245 2.91572 16.2798 3.32517 12.8788 4.93238C9.47787 6.53959 6.7206 9.25003 5.05536 12.623C3.39013 15.9959 2.91488 19.833 3.70688 23.5103C4.49888 27.1876 6.51156 30.4888 9.41765 32.8772C12.3237 35.2656 15.9523 36.6007 19.7134 36.6654C23.4744 36.73 27.1468 35.5205 30.1333 33.2334M26.6666 20.0001C26.6666 23.682 23.6818 26.6668 19.9999 26.6668C16.318 26.6668 13.3333 23.682 13.3333 20.0001C13.3333 16.3182 16.318 13.3334 19.9999 13.3334C23.6818 13.3334 26.6666 16.3182 26.6666 20.0001Z" stroke="currentColor" stroke-width="3.5" stroke-linecap="round" stroke-linejoin="round"/>
</svg>
