<svg width="40" height="40" viewBox="0 0 40 40" fill="none" xmlns="http://www.w3.org/2000/svg">
<g clip-path="url(#clip0_3002_57307)">
<path d="M8.33329 30H4.99996C4.1159 30 3.26806 29.6488 2.64294 29.0237C2.01782 28.3986 1.66663 27.5507 1.66663 26.6667V13.3333C1.66663 12.4493 2.01782 11.6014 2.64294 10.9763C3.26806 10.3512 4.1159 10 4.99996 10H10.3166M25 10H28.3333C29.2173 10 30.0652 10.3512 30.6903 10.9763C31.3154 11.6014 31.6666 12.4493 31.6666 13.3333V26.6667C31.6666 27.5507 31.3154 28.3986 30.6903 29.0237C30.0652 29.6488 29.2173 30 28.3333 30H23.0166M38.3333 21.6667V18.3333M18.3333 10L11.6666 20H21.6666L15 30" stroke="currentColor" stroke-width="3.5" stroke-linecap="round" stroke-linejoin="round"/>
</g>
<defs>
<clipPath id="clip0_3002_57307">
<rect width="40" height="40" fill="white"/>
</clipPath>
</defs>
</svg>
