<svg width="20" height="20" viewBox="0 0 20 20" fill="none" xmlns="http://www.w3.org/2000/svg">
<g clip-path="url(#clip0_3002_57301)">
<path d="M4.16665 15H2.49998C2.05795 15 1.63403 14.8244 1.32147 14.5118C1.00891 14.1993 0.833313 13.7754 0.833313 13.3333V6.66667C0.833313 6.22464 1.00891 5.80072 1.32147 5.48816C1.63403 5.17559 2.05795 5 2.49998 5H5.15831M12.5 5H14.1666C14.6087 5 15.0326 5.17559 15.3452 5.48816C15.6577 5.80072 15.8333 6.22464 15.8333 6.66667V13.3333C15.8333 13.7754 15.6577 14.1993 15.3452 14.5118C15.0326 14.8244 14.6087 15 14.1666 15H11.5083M19.1666 10.8333V9.16667M9.16665 5L5.83331 10H10.8333L7.49998 15" stroke="currentColor" stroke-width="2" stroke-linecap="round" stroke-linejoin="round"/>
</g>
<defs>
<clipPath id="clip0_3002_57301">
<rect width="20" height="20" fill="white"/>
</clipPath>
</defs>
</svg>
