<svg width="32" height="32" viewBox="0 0 32 32" fill="none" xmlns="http://www.w3.org/2000/svg">
<g clip-path="url(#clip0_3002_57380)">
<path d="M18.3066 27.9999C18.0722 28.404 17.7357 28.7395 17.3309 28.9726C16.9261 29.2058 16.4671 29.3285 15.9999 29.3285C15.5327 29.3285 15.0738 29.2058 14.669 28.9726C14.2641 28.7395 13.9277 28.404 13.6933 27.9999M24.8399 17.3333C24.2468 15.1618 23.964 12.9173 23.9999 10.6666C24.0021 9.21734 23.6105 7.79473 22.867 6.55071C22.1236 5.30669 21.0561 4.28799 19.7787 3.60344C18.5014 2.91888 17.062 2.59418 15.6145 2.66401C14.1669 2.73384 12.7655 3.19558 11.5599 3.99992M8.34659 8.34659C8.11494 9.09807 7.99807 9.88021 7.99992 10.6666C7.99992 19.9999 3.99992 22.6666 3.99992 22.6666H22.6666M1.33325 1.33325L30.6666 30.6666" stroke="currentColor" stroke-width="3" stroke-linecap="round" stroke-linejoin="round"/>
</g>
<defs>
<clipPath id="clip0_3002_57380">
<rect width="32" height="32" fill="white"/>
</clipPath>
</defs>
</svg>
