<svg width="20" height="20" viewBox="0 0 20 20" fill="none" xmlns="http://www.w3.org/2000/svg">
<g clip-path="url(#clip0_3002_57376)">
<path d="M11.4416 17.4999C11.2951 17.7525 11.0848 17.9621 10.8318 18.1079C10.5788 18.2536 10.2919 18.3303 9.99992 18.3303C9.70794 18.3303 9.42108 18.2536 9.16806 18.1079C8.91505 17.9621 8.70476 17.7525 8.55825 17.4999M15.5249 10.8333C15.1542 9.47609 14.9774 8.07329 14.9999 6.66659C15.0013 5.76081 14.7565 4.87167 14.2919 4.09416C13.8272 3.31665 13.1601 2.67997 12.3617 2.25212C11.5633 1.82427 10.6637 1.62133 9.759 1.66497C8.85427 1.70862 7.97839 1.99721 7.22492 2.49992M5.21659 5.21659C5.07181 5.68626 4.99876 6.1751 4.99992 6.66659C4.99992 12.4999 2.49992 14.1666 2.49992 14.1666H14.1666M0.833252 0.833252L19.1666 19.1666" stroke="currentColor" stroke-width="2" stroke-linecap="round" stroke-linejoin="round"/>
</g>
<defs>
<clipPath id="clip0_3002_57376">
<rect width="20" height="20" fill="white"/>
</clipPath>
</defs>
</svg>
