<svg width="40" height="40" viewBox="0 0 40 40" fill="none" xmlns="http://www.w3.org/2000/svg">
<g clip-path="url(#clip0_3002_57632)">
<path d="M1.66675 1.66663L38.3334 38.3333M35.0001 35H5.00008C4.11603 35 3.26818 34.6488 2.64306 34.0236C2.01794 33.3985 1.66675 32.5507 1.66675 31.6666V13.3333C1.66675 12.4492 2.01794 11.6014 2.64306 10.9763C3.26818 10.3511 4.11603 9.99996 5.00008 9.99996H10.0001M15.0001 4.99996H25.0001L28.3334 9.99996H35.0001C35.8841 9.99996 36.732 10.3511 37.3571 10.9763C37.9822 11.6014 38.3334 12.4492 38.3334 13.3333V28.9M25.4667 25.4666C24.9136 26.275 24.1891 26.9516 23.3447 27.4482C22.5004 27.9449 21.557 28.2493 20.5817 28.3399C19.6063 28.4306 18.623 28.3052 17.7016 27.9726C16.7802 27.6401 15.9434 27.1086 15.2508 26.4159C14.5581 25.7233 14.0266 24.8865 13.6941 23.9651C13.3615 23.0437 13.2361 22.0604 13.3268 21.085C13.4174 20.1097 13.7218 19.1663 14.2185 18.322C14.7151 17.4776 15.3917 16.7531 16.2001 16.2" stroke="currentColor" stroke-width="3.5" stroke-linecap="round" stroke-linejoin="round"/>
</g>
<defs>
<clipPath id="clip0_3002_57632">
<rect width="40" height="40" fill="white"/>
</clipPath>
</defs>
</svg>
