<svg width="32" height="32" viewBox="0 0 32 32" fill="none" xmlns="http://www.w3.org/2000/svg">
<g clip-path="url(#clip0_3002_57630)">
<path d="M1.33325 1.33337L30.6666 30.6667M27.9999 28H3.99992C3.29267 28 2.6144 27.7191 2.1143 27.219C1.6142 26.7189 1.33325 26.0406 1.33325 25.3334V10.6667C1.33325 9.95946 1.6142 9.28119 2.1143 8.78109C2.6144 8.28099 3.29267 8.00004 3.99992 8.00004H7.99992M11.9999 4.00004H19.9999L22.6666 8.00004H27.9999C28.7072 8.00004 29.3854 8.28099 29.8855 8.78109C30.3856 9.28119 30.6666 9.95946 30.6666 10.6667V23.12M20.3733 20.3734C19.9307 21.0201 19.3511 21.5614 18.6756 21.9587C18.0002 22.356 17.2455 22.5995 16.4652 22.672C15.6849 22.7445 14.8982 22.6442 14.1611 22.3782C13.424 22.1121 12.7546 21.6869 12.2005 21.1328C11.6464 20.5787 11.2212 19.9093 10.9551 19.1722C10.6891 18.4351 10.5888 17.6484 10.6613 16.8681C10.7338 16.0878 10.9773 15.3331 11.3746 14.6577C11.7719 13.9822 12.3132 13.4026 12.9599 12.96" stroke="currentColor" stroke-width="3" stroke-linecap="round" stroke-linejoin="round"/>
</g>
<defs>
<clipPath id="clip0_3002_57630">
<rect width="32" height="32" fill="white"/>
</clipPath>
</defs>
</svg>
