<svg width="20" height="20" viewBox="0 0 20 20" fill="none" xmlns="http://www.w3.org/2000/svg">
<g clip-path="url(#clip0_3002_57626)">
<path d="M0.833252 0.833374L19.1666 19.1667M17.4999 17.5H2.49992C2.05789 17.5 1.63397 17.3244 1.32141 17.0119C1.00885 16.6993 0.833252 16.2754 0.833252 15.8334V6.66671C0.833252 6.22468 1.00885 5.80076 1.32141 5.4882C1.63397 5.17564 2.05789 5.00004 2.49992 5.00004H4.99992M7.49992 2.50004H12.4999L14.1666 5.00004H17.4999C17.9419 5.00004 18.3659 5.17564 18.6784 5.4882C18.991 5.80076 19.1666 6.22468 19.1666 6.66671V14.45M12.7333 12.7334C12.4567 13.1376 12.0944 13.4759 11.6722 13.7242C11.2501 13.9725 10.7784 14.1247 10.2907 14.17C9.80303 14.2154 9.31136 14.1526 8.85067 13.9864C8.38998 13.8201 7.97159 13.5543 7.62527 13.208C7.27894 12.8617 7.01319 12.4433 6.84692 11.9826C6.68065 11.5219 6.61794 11.0303 6.66326 10.5426C6.70857 10.0549 6.8608 9.58321 7.10911 9.16105C7.35742 8.73888 7.69571 8.37662 8.09992 8.10004" stroke="currentColor" stroke-width="2" stroke-linecap="round" stroke-linejoin="round"/>
</g>
<defs>
<clipPath id="clip0_3002_57626">
<rect width="20" height="20" fill="white"/>
</clipPath>
</defs>
</svg>
