<svg width="32" height="32" viewBox="0 0 32 32" fill="none" xmlns="http://www.w3.org/2000/svg">
<path d="M2.66675 21.4667C3.94794 21.728 5.124 22.3603 6.04859 23.2849C6.97318 24.2095 7.60546 25.3855 7.86675 26.6667M2.66675 16.0667C5.37447 16.3679 7.89911 17.5814 9.82557 19.5079C11.752 21.4343 12.9656 23.959 13.2667 26.6667M2.66675 10.6667V8.00004C2.66675 7.2928 2.9477 6.61452 3.4478 6.11442C3.94789 5.61433 4.62617 5.33337 5.33341 5.33337H26.6667C27.374 5.33337 28.0523 5.61433 28.5524 6.11442C29.0525 6.61452 29.3334 7.2928 29.3334 8.00004V24C29.3334 24.7073 29.0525 25.3856 28.5524 25.8857C28.0523 26.3858 27.374 26.6667 26.6667 26.6667H18.6667M2.66675 26.6667H2.68008" stroke="currentColor" stroke-width="3" stroke-linecap="round" stroke-linejoin="round"/>
</svg>
