<svg width="40" height="40" viewBox="0 0 40 40" fill="none" xmlns="http://www.w3.org/2000/svg">
<path d="M3.33325 26.8333C4.93474 27.1599 6.40482 27.9503 7.56055 29.106C8.71629 30.2617 9.50664 31.7318 9.83325 33.3333M3.33325 20.0833C6.7179 20.4597 9.87371 21.9767 12.2818 24.3848C14.6898 26.7928 16.2068 29.9486 16.5833 33.3333M3.33325 13.3333V9.99996C3.33325 9.1159 3.68444 8.26806 4.30956 7.64294C4.93468 7.01782 5.78253 6.66663 6.66659 6.66663H33.3333C34.2173 6.66663 35.0652 7.01782 35.6903 7.64294C36.3154 8.26806 36.6666 9.1159 36.6666 9.99996V30C36.6666 30.884 36.3154 31.7319 35.6903 32.357C35.0652 32.9821 34.2173 33.3333 33.3333 33.3333H23.3333M3.33325 33.3333H3.34992" stroke="currentColor" stroke-width="3.5" stroke-linecap="round" stroke-linejoin="round"/>
</svg>
