<svg width="20" height="20" viewBox="0 0 20 20" fill="none" xmlns="http://www.w3.org/2000/svg">
<path d="M1.66675 13.4167C2.46749 13.58 3.20253 13.9752 3.7804 14.5531C4.35827 15.1309 4.75344 15.866 4.91675 16.6667M1.66675 10.0417C3.35907 10.2299 4.93698 10.9884 6.14101 12.1924C7.34504 13.3965 8.10353 14.9744 8.29175 16.6667M1.66675 6.66671V5.00004C1.66675 4.55801 1.84234 4.13409 2.1549 3.82153C2.46746 3.50897 2.89139 3.33337 3.33341 3.33337H16.6667C17.1088 3.33337 17.5327 3.50897 17.8453 3.82153C18.1578 4.13409 18.3334 4.55801 18.3334 5.00004V15C18.3334 15.4421 18.1578 15.866 17.8453 16.1786C17.5327 16.4911 17.1088 16.6667 16.6667 16.6667H11.6667M1.66675 16.6667H1.67508" stroke="currentColor" stroke-width="2" stroke-linecap="round" stroke-linejoin="round"/>
</svg>
