<svg width="40" height="40" viewBox="0 0 40 40" fill="none" xmlns="http://www.w3.org/2000/svg">
<path d="M20 13.3334C16.3181 13.3334 13.3333 16.3181 13.3333 20C13.3333 23.6819 16.3181 26.6667 20 26.6667C23.6819 26.6667 26.6666 23.6819 26.6666 20C26.6666 16.3181 23.6819 13.3334 20 13.3334ZM20 13.3334H35.2833M6.58331 10.1L14.2333 23.3334M18.1333 36.5667L25.7666 23.3334M36.6666 20C36.6666 29.2048 29.2047 36.6667 20 36.6667C10.7952 36.6667 3.33331 29.2048 3.33331 20C3.33331 10.7953 10.7952 3.33337 20 3.33337C29.2047 3.33337 36.6666 10.7953 36.6666 20Z" stroke="currentColor" stroke-width="3.5" stroke-linecap="round" stroke-linejoin="round"/>
</svg>
