<svg width="20" height="20" viewBox="0 0 20 20" fill="none" xmlns="http://www.w3.org/2000/svg">
<g clip-path="url(#clip0_3002_57976)">
<path d="M9.99999 6.66663C8.15904 6.66663 6.66666 8.15901 6.66666 9.99996C6.66666 11.8409 8.15904 13.3333 9.99999 13.3333C11.8409 13.3333 13.3333 11.8409 13.3333 9.99996C13.3333 8.15901 11.8409 6.66663 9.99999 6.66663ZM9.99999 6.66663H17.6417M3.29166 5.04996L7.11666 11.6666M9.06666 18.2833L12.8833 11.6666M18.3333 9.99996C18.3333 14.6023 14.6024 18.3333 9.99999 18.3333C5.39762 18.3333 1.66666 14.6023 1.66666 9.99996C1.66666 5.39759 5.39762 1.66663 9.99999 1.66663C14.6024 1.66663 18.3333 5.39759 18.3333 9.99996Z" stroke="currentColor" stroke-width="2" stroke-linecap="round" stroke-linejoin="round"/>
</g>
<defs>
<clipPath id="clip0_3002_57976">
<rect width="20" height="20" fill="white"/>
</clipPath>
</defs>
</svg>
