<svg width="40" height="40" viewBox="0 0 40 40" fill="none" xmlns="http://www.w3.org/2000/svg">
<path d="M26.6666 6.66671H30C30.884 6.66671 31.7319 7.0179 32.357 7.64302C32.9821 8.26814 33.3333 9.11599 33.3333 10V33.3334C33.3333 34.2174 32.9821 35.0653 32.357 35.6904C31.7319 36.3155 30.884 36.6667 30 36.6667H9.99996C9.1159 36.6667 8.26806 36.3155 7.64294 35.6904C7.01782 35.0653 6.66663 34.2174 6.66663 33.3334V10C6.66663 9.11599 7.01782 8.26814 7.64294 7.64302C8.26806 7.0179 9.1159 6.66671 9.99996 6.66671H13.3333M15 3.33337H25C25.9204 3.33337 26.6666 4.07957 26.6666 5.00004V8.33337C26.6666 9.25385 25.9204 10 25 10H15C14.0795 10 13.3333 9.25385 13.3333 8.33337V5.00004C13.3333 4.07957 14.0795 3.33337 15 3.33337Z" stroke="currentColor" stroke-width="3.5" stroke-linecap="round" stroke-linejoin="round"/>
</svg>
