<svg width="32" height="32" viewBox="0 0 32 32" fill="none" xmlns="http://www.w3.org/2000/svg">
<g clip-path="url(#clip0_3002_58130)">
<path d="M30.1466 22.6C30.5762 21.5858 30.7477 20.4809 30.646 19.3841C30.5442 18.2873 30.1723 17.2329 29.5634 16.315C28.9545 15.397 28.1277 14.6443 27.1569 14.124C26.186 13.6037 25.1014 13.3321 23.9999 13.3334H22.3199C21.7756 11.19 20.5787 9.26882 18.8946 7.83558C17.2106 6.40235 15.1227 5.52795 12.9199 5.33337M6.66657 6.66671C4.58401 7.81823 2.94632 9.63309 2.01403 11.8226C1.08173 14.0121 0.908377 16.4505 1.52154 18.7498C2.13471 21.0492 3.49917 23.0775 5.39788 24.5121C7.29659 25.9466 9.6205 26.705 11.9999 26.6667H23.9999C24.7729 26.6658 25.5399 26.5304 26.2666 26.2667M1.33324 1.33337L30.6666 30.6667" stroke="currentColor" stroke-width="3" stroke-linecap="round" stroke-linejoin="round"/>
</g>
<defs>
<clipPath id="clip0_3002_58130">
<rect width="32" height="32" fill="white"/>
</clipPath>
</defs>
</svg>
