<svg width="40" height="40" viewBox="0 0 40 40" fill="none" xmlns="http://www.w3.org/2000/svg">
<g clip-path="url(#clip0_3002_58057)">
<path d="M31.6666 28.1667C33.6919 27.7555 35.4921 26.6064 36.7178 24.9425C37.9435 23.2786 38.5072 21.2187 38.2995 19.1626C38.0918 17.1064 37.1275 15.2008 35.5939 13.8157C34.0602 12.4305 32.0666 11.6646 30 11.6667H27.9C27.3478 9.52892 26.2734 7.5617 24.7731 5.9417C23.2729 4.32169 21.3939 3.0996 19.3047 2.38516C17.2155 1.67071 14.9816 1.48627 12.8035 1.8484C10.6255 2.21052 8.57142 3.10788 6.82581 4.4599C5.08021 5.81192 3.69768 7.57628 2.80236 9.59457C1.90704 11.6129 1.52695 13.8219 1.69623 16.0234C1.8655 18.2248 2.57883 20.3498 3.77217 22.2075C4.96552 24.0652 6.60152 25.5975 8.5333 26.6667M21.6666 18.3334L15 28.3334H25L18.3333 38.3334" stroke="currentColor" stroke-width="3.5" stroke-linecap="round" stroke-linejoin="round"/>
</g>
<defs>
<clipPath id="clip0_3002_58057">
<rect width="40" height="40" fill="white"/>
</clipPath>
</defs>
</svg>
