<svg width="20" height="20" viewBox="0 0 20 20" fill="none" xmlns="http://www.w3.org/2000/svg">
<g clip-path="url(#clip0_3002_58126)">
<path d="M18.8416 14.125C19.1101 13.4911 19.2173 12.8006 19.1537 12.1151C19.0901 11.4296 18.8576 10.7706 18.4771 10.1969C18.0966 9.62317 17.5798 9.1527 16.973 8.82752C16.3662 8.50233 15.6883 8.33256 14.9999 8.33337H13.9499C13.6097 6.99378 12.8616 5.79303 11.8091 4.89725C10.7566 4.00148 9.45166 3.45498 8.07491 3.33337M4.16658 4.16671C2.86498 4.88641 1.84142 6.02069 1.25874 7.38913C0.676051 8.75756 0.567705 10.2816 0.950933 11.7187C1.33416 13.1558 2.18695 14.4234 3.37365 15.32C4.56034 16.2166 6.01278 16.6907 7.49991 16.6667H14.9999C15.4831 16.6661 15.9624 16.5815 16.4166 16.4167M0.833245 0.833374L19.1666 19.1667" stroke="currentColor" stroke-width="2" stroke-linecap="round" stroke-linejoin="round"/>
</g>
<defs>
<clipPath id="clip0_3002_58126">
<rect width="20" height="20" fill="white"/>
</clipPath>
</defs>
</svg>
