<svg width="40" height="40" viewBox="0 0 40 40" fill="none" xmlns="http://www.w3.org/2000/svg">
<g clip-path="url(#clip0_3002_58132)">
<path d="M37.6834 28.25C38.2204 26.9821 38.4348 25.601 38.3076 24.23C38.1804 22.8591 37.7155 21.541 36.9544 20.3936C36.1934 19.2462 35.1599 18.3053 33.9463 17.6549C32.7327 17.0045 31.3769 16.665 30.0001 16.6666H27.9001C27.2197 13.9874 25.7235 11.5859 23.6185 9.79439C21.5134 8.00285 18.9036 6.90985 16.1501 6.66663M8.3334 8.33329C5.73019 9.77269 3.68308 12.0413 2.51771 14.7781C1.35235 17.515 1.13565 20.563 1.90211 23.4372C2.66857 26.3114 4.37415 28.8468 6.74754 30.64C9.12093 32.4332 12.0258 33.3812 15.0001 33.3333H30.0001C30.9664 33.3322 31.9251 33.163 32.8334 32.8333M1.66673 1.66663L38.3334 38.3333" stroke="currentColor" stroke-width="3.5" stroke-linecap="round" stroke-linejoin="round"/>
</g>
<defs>
<clipPath id="clip0_3002_58132">
<rect width="40" height="40" fill="white"/>
</clipPath>
</defs>
</svg>
