<svg width="20" height="20" viewBox="0 0 20 20" fill="none" xmlns="http://www.w3.org/2000/svg">
<g clip-path="url(#clip0_3002_58251)">
<path d="M15.0001 6.66671H15.8334C16.7175 6.66671 17.5653 7.0179 18.1904 7.64302C18.8156 8.26814 19.1667 9.11599 19.1667 10C19.1667 10.8841 18.8156 11.7319 18.1904 12.3571C17.5653 12.9822 16.7175 13.3334 15.8334 13.3334H15.0001M15.0001 6.66671H1.66675V14.1667C1.66675 15.0508 2.01794 15.8986 2.64306 16.5237C3.26818 17.1489 4.11603 17.5 5.00008 17.5H11.6667C12.5508 17.5 13.3986 17.1489 14.0238 16.5237C14.6489 15.8986 15.0001 15.0508 15.0001 14.1667V6.66671ZM5.00008 0.833374V3.33337M8.33341 0.833374V3.33337M11.6667 0.833374V3.33337" stroke="currentColor" stroke-width="2" stroke-linecap="round" stroke-linejoin="round"/>
</g>
<defs>
<clipPath id="clip0_3002_58251">
<rect width="20" height="20" fill="white"/>
</clipPath>
</defs>
</svg>
