<svg width="32" height="32" viewBox="0 0 32 32" fill="none" xmlns="http://www.w3.org/2000/svg">
<g clip-path="url(#clip0_3002_58255)">
<path d="M24.0001 10.6667H25.3334C26.7479 10.6667 28.1045 11.2286 29.1047 12.2288C30.1048 13.229 30.6667 14.5856 30.6667 16C30.6667 17.4145 30.1048 18.7711 29.1047 19.7713C28.1045 20.7715 26.7479 21.3334 25.3334 21.3334H24.0001M24.0001 10.6667H2.66675V22.6667C2.66675 24.0812 3.22865 25.4377 4.22885 26.4379C5.22904 27.4381 6.58559 28 8.00008 28H18.6667C20.0812 28 21.4378 27.4381 22.438 26.4379C23.4382 25.4377 24.0001 24.0812 24.0001 22.6667V10.6667ZM8.00008 1.33337V5.33337M13.3334 1.33337V5.33337M18.6667 1.33337V5.33337" stroke="currentColor" stroke-width="3" stroke-linecap="round" stroke-linejoin="round"/>
</g>
<defs>
<clipPath id="clip0_3002_58255">
<rect width="32" height="32" fill="white"/>
</clipPath>
</defs>
</svg>
