<svg width="40" height="40" viewBox="0 0 40 40" fill="none" xmlns="http://www.w3.org/2000/svg">
<g clip-path="url(#clip0_3002_58257)">
<path d="M29.9999 13.3333H31.6666C33.4347 13.3333 35.1304 14.0357 36.3806 15.2859C37.6309 16.5362 38.3333 18.2319 38.3333 20C38.3333 21.7681 37.6309 23.4638 36.3806 24.714C35.1304 25.9642 33.4347 26.6666 31.6666 26.6666H29.9999M29.9999 13.3333H3.33325V28.3333C3.33325 30.1014 4.03563 31.7971 5.28587 33.0473C6.53612 34.2976 8.23181 35 9.99992 35H23.3333C25.1014 35 26.7971 34.2976 28.0473 33.0473C29.2975 31.7971 29.9999 30.1014 29.9999 28.3333V13.3333ZM9.99992 1.66663V6.66663M16.6666 1.66663V6.66663M23.3333 1.66663V6.66663" stroke="currentColor" stroke-width="3.5" stroke-linecap="round" stroke-linejoin="round"/>
</g>
<defs>
<clipPath id="clip0_3002_58257">
<rect width="40" height="40" fill="white"/>
</clipPath>
</defs>
</svg>
