<svg width="32" height="32" viewBox="0 0 32 32" fill="none" xmlns="http://www.w3.org/2000/svg">
<g clip-path="url(#clip0_3002_58630)">
<path d="M12.0002 1.33331V5.33331M20.0002 1.33331V5.33331M12.0002 26.6666V30.6666M20.0002 26.6666V30.6666M26.6668 12H30.6668M26.6668 18.6666H30.6668M1.3335 12H5.3335M1.3335 18.6666H5.3335M8.00016 5.33331H24.0002C25.4729 5.33331 26.6668 6.52722 26.6668 7.99998V24C26.6668 25.4727 25.4729 26.6666 24.0002 26.6666H8.00016C6.5274 26.6666 5.3335 25.4727 5.3335 24V7.99998C5.3335 6.52722 6.5274 5.33331 8.00016 5.33331ZM12.0002 12H20.0002V20H12.0002V12Z" stroke="currentColor" stroke-width="3" stroke-linecap="round" stroke-linejoin="round"/>
</g>
<defs>
<clipPath id="clip0_3002_58630">
<rect width="32" height="32" fill="white"/>
</clipPath>
</defs>
</svg>
