<svg width="40" height="40" viewBox="0 0 40 40" fill="none" xmlns="http://www.w3.org/2000/svg">
<g clip-path="url(#clip0_3002_58632)">
<path d="M14.9998 1.66669V6.66669M24.9998 1.66669V6.66669M14.9998 33.3334V38.3334M24.9998 33.3334V38.3334M33.3332 15H38.3332M33.3332 23.3334H38.3332M1.6665 15H6.6665M1.6665 23.3334H6.6665M9.99984 6.66669H29.9998C31.8408 6.66669 33.3332 8.15907 33.3332 10V30C33.3332 31.841 31.8408 33.3334 29.9998 33.3334H9.99984C8.15889 33.3334 6.6665 31.841 6.6665 30V10C6.6665 8.15907 8.15889 6.66669 9.99984 6.66669ZM14.9998 15H24.9998V25H14.9998V15Z" stroke="currentColor" stroke-width="3.5" stroke-linecap="round" stroke-linejoin="round"/>
</g>
<defs>
<clipPath id="clip0_3002_58632">
<rect width="40" height="40" fill="white"/>
</clipPath>
</defs>
</svg>
