<svg width="20" height="20" viewBox="0 0 20 20" fill="none" xmlns="http://www.w3.org/2000/svg">
<g clip-path="url(#clip0_3002_58776)">
<path d="M6.66675 10H13.3334M10.8334 13.3334C10.8334 13.7936 10.4603 14.1667 10.0001 14.1667C9.53984 14.1667 9.16675 13.7936 9.16675 13.3334C9.16675 12.8731 9.53984 12.5 10.0001 12.5C10.4603 12.5 10.8334 12.8731 10.8334 13.3334ZM10.8334 6.66669C10.8334 7.12692 10.4603 7.50002 10.0001 7.50002C9.53984 7.50002 9.16675 7.12692 9.16675 6.66669C9.16675 6.20645 9.53984 5.83335 10.0001 5.83335C10.4603 5.83335 10.8334 6.20645 10.8334 6.66669ZM18.3334 10C18.3334 14.6024 14.6025 18.3334 10.0001 18.3334C5.39771 18.3334 1.66675 14.6024 1.66675 10C1.66675 5.39765 5.39771 1.66669 10.0001 1.66669C14.6025 1.66669 18.3334 5.39765 18.3334 10Z" stroke="currentColor" stroke-width="2" stroke-linecap="round" stroke-linejoin="round"/>
</g>
<defs>
<clipPath id="clip0_3002_58776">
<rect width="20" height="20" fill="white"/>
</clipPath>
</defs>
</svg>
