<svg width="40" height="40" viewBox="0 0 40 40" fill="none" xmlns="http://www.w3.org/2000/svg">
<path d="M13.3333 20H26.6666M21.6666 26.6666C21.6666 27.5871 20.9204 28.3333 19.9999 28.3333C19.0794 28.3333 18.3333 27.5871 18.3333 26.6666C18.3333 25.7462 19.0794 25 19.9999 25C20.9204 25 21.6666 25.7462 21.6666 26.6666ZM21.6666 13.3333C21.6666 14.2538 20.9204 15 19.9999 15C19.0794 15 18.3333 14.2538 18.3333 13.3333C18.3333 12.4128 19.0794 11.6666 19.9999 11.6666C20.9204 11.6666 21.6666 12.4128 21.6666 13.3333ZM36.6666 20C36.6666 29.2047 29.2047 36.6666 19.9999 36.6666C10.7952 36.6666 3.33325 29.2047 3.33325 20C3.33325 10.7952 10.7952 3.33331 19.9999 3.33331C29.2047 3.33331 36.6666 10.7952 36.6666 20Z" stroke="currentColor" stroke-width="3.5" stroke-linecap="round" stroke-linejoin="round"/>
</svg>
