<svg width="20" height="20" viewBox="0 0 20 20" fill="none" xmlns="http://www.w3.org/2000/svg">
<g clip-path="url(#clip0_3002_58901)">
<path d="M7.13341 2.29166C10.7751 7.31666 12.1501 10.1417 13.8251 17.0583M15.9417 4.24166C12.8417 7.86666 8.49175 8.95832 1.87508 9.11666M18.1251 10.7C15.2084 9.92499 12.6001 10.0167 10.6751 10.7C8.52508 11.4667 6.50008 13.0833 4.47508 15.9667M18.3334 9.99999C18.3334 14.6024 14.6025 18.3333 10.0001 18.3333C5.39771 18.3333 1.66675 14.6024 1.66675 9.99999C1.66675 5.39762 5.39771 1.66666 10.0001 1.66666C14.6025 1.66666 18.3334 5.39762 18.3334 9.99999Z" stroke="currentColor" stroke-width="2" stroke-linecap="round" stroke-linejoin="round"/>
</g>
<defs>
<clipPath id="clip0_3002_58901">
<rect width="20" height="20" fill="white"/>
</clipPath>
</defs>
</svg>
