<svg width="19" height="18" viewBox="0 0 19 18" fill="none" xmlns="http://www.w3.org/2000/svg">
<path d="M16.1301 3.4574C15.747 3.07416 15.2922 2.77014 14.7916 2.56272C14.291 2.3553 13.7545 2.24854 13.2126 2.24854C12.6707 2.24854 12.1342 2.3553 11.6336 2.56272C11.133 2.77014 10.6782 3.07416 10.2951 3.4574L9.50009 4.2524L8.70509 3.4574C7.93132 2.68364 6.88186 2.24894 5.78759 2.24894C4.69331 2.24894 3.64386 2.68364 2.87009 3.4574C2.09632 4.23117 1.66162 5.28063 1.66162 6.3749C1.66162 7.46918 2.09632 8.51864 2.87009 9.2924L9.50009 15.9224L16.1301 9.2924C16.5133 8.90934 16.8174 8.45451 17.0248 7.95392C17.2322 7.45333 17.339 6.91677 17.339 6.3749C17.339 5.83304 17.2322 5.29648 17.0248 4.79589C16.8174 4.29529 16.5133 3.84047 16.1301 3.4574Z" stroke="currentColor" stroke-linecap="round" stroke-linejoin="round"/>
</svg>
