<svg width="20" height="20" viewBox="0 0 20 20" fill="none" xmlns="http://www.w3.org/2000/svg">
<g clip-path="url(#clip0_3002_59201)">
<path d="M10.0001 1.66667H7.08341C6.30987 1.66667 5.568 1.97396 5.02102 2.52094C4.47404 3.06792 4.16675 3.80979 4.16675 4.58334C4.16675 5.35689 4.47404 6.09875 5.02102 6.64573C5.568 7.19271 6.30987 7.5 7.08341 7.5M10.0001 1.66667V7.5M10.0001 1.66667H12.9167C13.2998 1.66667 13.679 1.74211 14.0329 1.88869C14.3868 2.03527 14.7083 2.25011 14.9791 2.52094C15.25 2.79178 15.4648 3.11331 15.6114 3.46718C15.758 3.82104 15.8334 4.20032 15.8334 4.58334C15.8334 4.96636 15.758 5.34563 15.6114 5.6995C15.4648 6.05336 15.25 6.3749 14.9791 6.64573C14.7083 6.91657 14.3868 7.13141 14.0329 7.27799C13.679 7.42456 13.2998 7.5 12.9167 7.5M10.0001 7.5H7.08341M10.0001 7.5H12.9167M10.0001 7.5V13.3333M7.08341 7.5C6.30987 7.5 5.568 7.8073 5.02102 8.35428C4.47404 8.90126 4.16675 9.64312 4.16675 10.4167C4.16675 11.1902 4.47404 11.9321 5.02102 12.4791C5.568 13.026 6.30987 13.3333 7.08341 13.3333M12.9167 7.5C12.5337 7.5 12.1545 7.57545 11.8006 7.72202C11.4467 7.8686 11.1252 8.08344 10.8544 8.35428C10.5835 8.62511 10.3687 8.94665 10.2221 9.30051C10.0755 9.65438 10.0001 10.0336 10.0001 10.4167C10.0001 10.7997 10.0755 11.179 10.2221 11.5328C10.3687 11.8867 10.5835 12.2082 10.8544 12.4791C11.1252 12.7499 11.4467 12.9647 11.8006 13.1113C12.1545 13.2579 12.5337 13.3333 12.9167 13.3333C13.2998 13.3333 13.679 13.2579 14.0329 13.1113C14.3868 12.9647 14.7083 12.7499 14.9791 12.4791C15.25 12.2082 15.4648 11.8867 15.6114 11.5328C15.758 11.179 15.8334 10.7997 15.8334 10.4167C15.8334 10.0336 15.758 9.65438 15.6114 9.30051C15.4648 8.94665 15.25 8.62511 14.9791 8.35428C14.7083 8.08344 14.3868 7.8686 14.0329 7.72202C13.679 7.57545 13.2998 7.5 12.9167 7.5ZM7.08341 13.3333C6.30987 13.3333 5.568 13.6406 5.02102 14.1876C4.47404 14.7346 4.16675 15.4765 4.16675 16.25C4.16675 17.0236 4.47404 17.7654 5.02102 18.3124C5.568 18.8594 6.30987 19.1667 7.08341 19.1667C7.85696 19.1667 8.59883 18.8594 9.14581 18.3124C9.69279 17.7654 10.0001 17.0236 10.0001 16.25V13.3333M7.08341 13.3333H10.0001" stroke="currentColor" stroke-width="2" stroke-linecap="round" stroke-linejoin="round"/>
</g>
<defs>
<clipPath id="clip0_3002_59201">
<rect width="20" height="20" fill="white"/>
</clipPath>
</defs>
</svg>
