<svg width="32" height="32" viewBox="0 0 32 32" fill="none" xmlns="http://www.w3.org/2000/svg">
<path d="M26.6667 16V29.3333H5.33332V16M16 29.3333V9.33332M16 9.33332H9.99999C9.11593 9.33332 8.26809 8.98213 7.64297 8.35701C7.01785 7.73189 6.66666 6.88405 6.66666 5.99999C6.66666 5.11593 7.01785 4.26809 7.64297 3.64297C8.26809 3.01785 9.11593 2.66666 9.99999 2.66666C14.6667 2.66666 16 9.33332 16 9.33332ZM16 9.33332H22C22.884 9.33332 23.7319 8.98213 24.357 8.35701C24.9821 7.73189 25.3333 6.88405 25.3333 5.99999C25.3333 5.11593 24.9821 4.26809 24.357 3.64297C23.7319 3.01785 22.884 2.66666 22 2.66666C17.3333 2.66666 16 9.33332 16 9.33332ZM2.66666 9.33332H29.3333V16H2.66666V9.33332Z" stroke="currentColor" stroke-width="3" stroke-linecap="round" stroke-linejoin="round"/>
</svg>
