<svg width="40" height="40" viewBox="0 0 40 40" fill="none" xmlns="http://www.w3.org/2000/svg">
<path d="M33.3333 20V36.6667H6.66665V20M20 36.6667V11.6667M20 11.6667H12.5C11.3949 11.6667 10.3351 11.2277 9.5537 10.4463C8.7723 9.66489 8.33331 8.60508 8.33331 7.50001C8.33331 6.39494 8.7723 5.33513 9.5537 4.55373C10.3351 3.77233 11.3949 3.33334 12.5 3.33334C18.3333 3.33334 20 11.6667 20 11.6667ZM20 11.6667H27.5C28.605 11.6667 29.6649 11.2277 30.4463 10.4463C31.2277 9.66489 31.6666 8.60508 31.6666 7.50001C31.6666 6.39494 31.2277 5.33513 30.4463 4.55373C29.6649 3.77233 28.605 3.33334 27.5 3.33334C21.6666 3.33334 20 11.6667 20 11.6667ZM3.33331 11.6667H36.6666V20H3.33331V11.6667Z" stroke="currentColor" stroke-width="3.5" stroke-linecap="round" stroke-linejoin="round"/>
</svg>
