<svg width="20" height="20" viewBox="0 0 20 20" fill="none" xmlns="http://www.w3.org/2000/svg">
<g clip-path="url(#clip0_3002_59676)">
<path d="M7.50008 15.8333C3.33341 17.0833 3.33341 13.75 1.66675 13.3333M13.3334 18.3333V15.1083C13.3647 14.711 13.311 14.3115 13.1759 13.9365C13.0409 13.5615 12.8275 13.2195 12.5501 12.9333C15.1667 12.6417 17.9167 11.65 17.9167 7.1C17.9165 5.93652 17.469 4.81766 16.6667 3.975C17.0466 2.95709 17.0198 1.83196 16.5917 0.833332C16.5917 0.833332 15.6084 0.541666 13.3334 2.06667C11.4234 1.54902 9.41007 1.54902 7.50008 2.06667C5.22508 0.541666 4.24175 0.833332 4.24175 0.833332C3.81373 1.83196 3.78687 2.95709 4.16675 3.975C3.35852 4.82392 2.91052 5.95288 2.91675 7.125C2.91675 11.6417 5.66675 12.6333 8.28341 12.9583C8.00925 13.2416 7.7978 13.5795 7.66284 13.9499C7.52788 14.3204 7.47242 14.7151 7.50008 15.1083V18.3333" stroke="currentColor" stroke-width="2" stroke-linecap="round" stroke-linejoin="round"/>
</g>
<defs>
<clipPath id="clip0_3002_59676">
<rect width="20" height="20" fill="white"/>
</clipPath>
</defs>
</svg>
