<svg width="48" height="48" viewBox="0 0 48 48" fill="none" xmlns="http://www.w3.org/2000/svg">
<g clip-path="url(#clip0_3002_59647)">
<path d="M45.3 28.78L24 44.26L2.70004 28.78C2.41449 28.57 2.20268 28.2751 2.09491 27.9374C1.98714 27.5997 1.98894 27.2366 2.10004 26.9L4.54004 19.34L9.42004 4.32001C9.46738 4.19763 9.54272 4.08803 9.64004 4.00001C9.79852 3.85526 10.0054 3.77499 10.22 3.77499C10.4347 3.77499 10.6416 3.85526 10.8 4.00001C10.9028 4.09934 10.9785 4.22325 11.02 4.36001L15.9 19.34H32.1L36.98 4.32001C37.0274 4.19763 37.1027 4.08803 37.2 4.00001C37.3585 3.85526 37.5654 3.77499 37.78 3.77499C37.9947 3.77499 38.2016 3.85526 38.36 4.00001C38.4628 4.09934 38.5385 4.22325 38.58 4.36001L43.46 19.38L46 26.9C46.1011 27.247 46.0876 27.6173 45.9615 27.956C45.8354 28.2946 45.6034 28.5836 45.3 28.78Z" stroke="currentColor" stroke-width="4" stroke-linecap="round" stroke-linejoin="round"/>
</g>
<defs>
<clipPath id="clip0_3002_59647">
<rect width="48" height="48" fill="white"/>
</clipPath>
</defs>
</svg>
