<svg width="40" height="40" viewBox="0 0 40 40" fill="none" xmlns="http://www.w3.org/2000/svg">
<g clip-path="url(#clip0_3002_59657)">
<path d="M37.75 23.9833L20 36.8833L2.25 23.9833C2.01204 23.8083 1.83553 23.5625 1.74572 23.2811C1.65591 22.9997 1.65741 22.6972 1.75 22.4167L3.78333 16.1167L7.85 3.6C7.88944 3.49801 7.95223 3.40668 8.03333 3.33333C8.1654 3.2127 8.3378 3.14581 8.51666 3.14581C8.69553 3.14581 8.86793 3.2127 9 3.33333C9.08563 3.4161 9.14874 3.51936 9.18333 3.63333L13.25 16.1167H26.75L30.8167 3.6C30.8561 3.49801 30.9189 3.40668 31 3.33333C31.1321 3.2127 31.3045 3.14581 31.4833 3.14581C31.6622 3.14581 31.8346 3.2127 31.9667 3.33333C32.0523 3.4161 32.1154 3.51936 32.15 3.63333L36.2167 16.15L38.3333 22.4167C38.4175 22.7058 38.4063 23.0144 38.3012 23.2966C38.1961 23.5788 38.0028 23.8197 37.75 23.9833Z" stroke="currentColor" stroke-width="3.5" stroke-linecap="round" stroke-linejoin="round"/>
</g>
<defs>
<clipPath id="clip0_3002_59657">
<rect width="40" height="40" fill="white"/>
</clipPath>
</defs>
</svg>
