<svg width="20" height="20" viewBox="0 0 20 20" fill="none" xmlns="http://www.w3.org/2000/svg">
<g clip-path="url(#clip0_3002_59651)">
<path d="M18.8751 11.9917L10.0001 18.4417L1.12512 11.9917C1.00614 11.9042 0.917886 11.7813 0.872982 11.6406C0.828079 11.4999 0.828827 11.3486 0.87512 11.2083L1.89179 8.05833L3.92512 1.8C3.94484 1.749 3.97624 1.70334 4.01679 1.66666C4.08282 1.60635 4.16902 1.57291 4.25845 1.57291C4.34789 1.57291 4.43409 1.60635 4.50012 1.66666C4.54294 1.70805 4.57449 1.75968 4.59179 1.81666L6.62512 8.05833H13.3751L15.4085 1.8C15.4282 1.749 15.4596 1.70334 15.5001 1.66666C15.5662 1.60635 15.6524 1.57291 15.7418 1.57291C15.8312 1.57291 15.9174 1.60635 15.9835 1.66666C16.0263 1.70805 16.0578 1.75968 16.0751 1.81666L18.1085 8.075L19.1668 11.2083C19.2089 11.3529 19.2032 11.5072 19.1507 11.6483C19.0982 11.7894 19.0015 11.9098 18.8751 11.9917Z" stroke="currentColor" stroke-width="2" stroke-linecap="round" stroke-linejoin="round"/>
</g>
<defs>
<clipPath id="clip0_3002_59651">
<rect width="20" height="20" fill="white"/>
</clipPath>
</defs>
</svg>
