<svg width="40" height="40" viewBox="0 0 40 40" fill="none" xmlns="http://www.w3.org/2000/svg">
<path d="M36.6668 20C36.6668 29.2048 29.2049 36.6667 20.0002 36.6667M36.6668 20C36.6668 10.7953 29.2049 3.33334 20.0002 3.33334M36.6668 20H3.3335M20.0002 36.6667C10.7954 36.6667 3.3335 29.2048 3.3335 20M20.0002 36.6667C24.169 32.1028 26.5381 26.18 26.6668 20C26.5381 13.8201 24.169 7.89726 20.0002 3.33334M20.0002 36.6667C15.8314 32.1028 13.4622 26.18 13.3335 20C13.4622 13.8201 15.8314 7.89726 20.0002 3.33334M3.3335 20C3.3335 10.7953 10.7954 3.33334 20.0002 3.33334" stroke="currentColor" stroke-width="3.5" stroke-linecap="round" stroke-linejoin="round"/>
</svg>
