<svg width="40" height="40" viewBox="0 0 40 40" fill="none" xmlns="http://www.w3.org/2000/svg">
<path d="M36.6666 20H3.33331M36.6666 20V30C36.6666 30.8841 36.3155 31.7319 35.6903 32.357C35.0652 32.9822 34.2174 33.3334 33.3333 33.3334H6.66665C5.78259 33.3334 4.93474 32.9822 4.30962 32.357C3.6845 31.7319 3.33331 30.8841 3.33331 30V20M36.6666 20L30.9166 8.51669C30.6407 7.96133 30.2153 7.49397 29.6882 7.16715C29.1612 6.84033 28.5535 6.66702 27.9333 6.66669H12.0666C11.4465 6.66702 10.8388 6.84033 10.3117 7.16715C9.78469 7.49397 9.35927 7.96133 9.08331 8.51669L3.33331 20M9.99998 26.6667H10.0166M16.6666 26.6667H16.6833" stroke="currentColor" stroke-width="3.5" stroke-linecap="round" stroke-linejoin="round"/>
</svg>
