<svg width="20" height="20" viewBox="0 0 20 20" fill="none" xmlns="http://www.w3.org/2000/svg">
<path d="M18.3333 9.99998H1.66666M18.3333 9.99998V15C18.3333 15.442 18.1577 15.8659 17.8452 16.1785C17.5326 16.4911 17.1087 16.6666 16.6667 16.6666H3.33332C2.8913 16.6666 2.46737 16.4911 2.15481 16.1785C1.84225 15.8659 1.66666 15.442 1.66666 15V9.99998M18.3333 9.99998L15.4583 4.25831C15.3203 3.98064 15.1076 3.74696 14.8441 3.58355C14.5806 3.42014 14.2767 3.33348 13.9667 3.33331H6.03332C5.72325 3.33348 5.41938 3.42014 5.15586 3.58355C4.89234 3.74696 4.67964 3.98064 4.54166 4.25831L1.66666 9.99998M4.99999 13.3333H5.00832M8.33332 13.3333H8.34166" stroke="currentColor" stroke-width="2" stroke-linecap="round" stroke-linejoin="round"/>
</svg>
