<svg width="20" height="20" viewBox="0 0 20 20" fill="none" xmlns="http://www.w3.org/2000/svg">
<path d="M17.3666 3.84173C16.941 3.4159 16.4356 3.0781 15.8794 2.84764C15.3232 2.61717 14.727 2.49854 14.1249 2.49854C13.5229 2.49854 12.9267 2.61717 12.3705 2.84764C11.8143 3.0781 11.3089 3.4159 10.8833 3.84173L9.99994 4.72506L9.1166 3.84173C8.25686 2.98199 7.0908 2.49899 5.87494 2.49899C4.65908 2.49899 3.49301 2.98199 2.63327 3.84173C1.77353 4.70148 1.29053 5.86753 1.29053 7.0834C1.29053 8.29926 1.77353 9.46531 2.63327 10.3251L9.99994 17.6918L17.3666 10.3251C17.7924 9.89943 18.1302 9.39407 18.3607 8.83785C18.5912 8.28164 18.7098 7.68546 18.7098 7.0834C18.7098 6.48133 18.5912 5.88514 18.3607 5.32893C18.1302 4.77271 17.7924 4.26736 17.3666 3.84173Z" fill="currentColor" stroke="currentColor" stroke-width="2" stroke-linecap="round" stroke-linejoin="round"/>
</svg>
