<svg width="32" height="32" viewBox="0 0 32 32" fill="none" xmlns="http://www.w3.org/2000/svg">
<path d="M29.3332 16H21.3332L18.6665 20H13.3332L10.6665 16H2.6665M29.3332 16V24C29.3332 24.7072 29.0522 25.3855 28.5521 25.8856C28.052 26.3857 27.3737 26.6666 26.6665 26.6666H5.33317C4.62593 26.6666 3.94765 26.3857 3.44755 25.8856C2.94746 25.3855 2.6665 24.7072 2.6665 24V16M29.3332 16L24.7332 6.81331C24.5124 6.36903 24.1721 5.99514 23.7504 5.73369C23.3288 5.47223 22.8426 5.33358 22.3465 5.33331H9.65317C9.15706 5.33358 8.67086 5.47223 8.24923 5.73369C7.8276 5.99514 7.48727 6.36903 7.2665 6.81331L2.6665 16" stroke="currentColor" stroke-width="3" stroke-linecap="round" stroke-linejoin="round"/>
</svg>
