<svg width="40" height="40" viewBox="0 0 40 40" fill="none" xmlns="http://www.w3.org/2000/svg">
<path d="M36.6668 20H26.6668L23.3335 25H16.6668L13.3335 20H3.3335M36.6668 20V30C36.6668 30.8841 36.3156 31.7319 35.6905 32.357C35.0654 32.9822 34.2176 33.3334 33.3335 33.3334H6.66683C5.78277 33.3334 4.93493 32.9822 4.30981 32.357C3.68469 31.7319 3.3335 30.8841 3.3335 30V20M36.6668 20L30.9168 8.51669C30.6409 7.96133 30.2155 7.49397 29.6884 7.16715C29.1614 6.84033 28.5536 6.66702 27.9335 6.66669H12.0668C11.4467 6.66702 10.8389 6.84033 10.3119 7.16715C9.78487 7.49397 9.35946 7.96133 9.0835 8.51669L3.3335 20" stroke="currentColor" stroke-width="3.5" stroke-linecap="round" stroke-linejoin="round"/>
</svg>
