<svg width="32" height="32" viewBox="0 0 32 32" fill="none" xmlns="http://www.w3.org/2000/svg">
<path d="M27.9999 2.66669L25.3332 5.33335M25.3332 5.33335L29.3332 9.33335L24.6665 14L20.6665 10M25.3332 5.33335L20.6665 10M15.1865 15.48C15.875 16.1593 16.4223 16.9681 16.7969 17.8597C17.1715 18.7514 17.366 19.7084 17.3692 20.6755C17.3725 21.6427 17.1844 22.6009 16.8158 23.4951C16.4471 24.3892 15.9053 25.2017 15.2214 25.8855C14.5375 26.5694 13.7251 27.1113 12.8309 27.4799C11.9368 27.8485 10.9785 28.0366 10.0114 28.0334C9.04423 28.0301 8.08727 27.8356 7.1956 27.461C6.30393 27.0864 5.49517 26.5391 4.81588 25.8507C3.48005 24.4676 2.74089 22.6152 2.7576 20.6924C2.77431 18.7696 3.54555 16.9303 4.90521 15.5707C6.26487 14.211 8.10416 13.4398 10.0269 13.4231C11.9497 13.4064 13.8021 14.1455 15.1852 15.4814L15.1865 15.48ZM15.1865 15.48L20.6665 10" stroke="currentColor" stroke-width="3" stroke-linecap="round" stroke-linejoin="round"/>
</svg>
