<svg width="32" height="32" viewBox="0 0 32 32" fill="none" xmlns="http://www.w3.org/2000/svg">
<path d="M6.57341 6.57335L12.2267 12.2267M19.7734 19.7734L25.4267 25.4267M25.4267 6.57335L19.7734 12.2267L24.4801 7.52002M6.57341 25.4267L12.2267 19.7734M29.3334 16C29.3334 23.3638 23.3639 29.3334 16.0001 29.3334C8.63628 29.3334 2.66675 23.3638 2.66675 16C2.66675 8.63622 8.63628 2.66669 16.0001 2.66669C23.3639 2.66669 29.3334 8.63622 29.3334 16ZM21.3334 16C21.3334 18.9455 18.9456 21.3334 16.0001 21.3334C13.0546 21.3334 10.6667 18.9455 10.6667 16C10.6667 13.0545 13.0546 10.6667 16.0001 10.6667C18.9456 10.6667 21.3334 13.0545 21.3334 16Z" stroke="currentColor" stroke-width="3" stroke-linecap="round" stroke-linejoin="round"/>
</svg>
