<svg width="40" height="40" viewBox="0 0 40 40" fill="none" xmlns="http://www.w3.org/2000/svg">
<path d="M8.21658 8.21665L15.2833 15.2833M24.7166 24.7166L31.7833 31.7833M31.7833 8.21665L24.7166 15.2833L30.5999 9.39998M8.21658 31.7833L15.2833 24.7166M36.6666 20C36.6666 29.2047 29.2047 36.6666 19.9999 36.6666C10.7952 36.6666 3.33325 29.2047 3.33325 20C3.33325 10.7952 10.7952 3.33331 19.9999 3.33331C29.2047 3.33331 36.6666 10.7952 36.6666 20ZM26.6666 20C26.6666 23.6819 23.6818 26.6666 19.9999 26.6666C16.318 26.6666 13.3333 23.6819 13.3333 20C13.3333 16.3181 16.318 13.3333 19.9999 13.3333C23.6818 13.3333 26.6666 16.3181 26.6666 20Z" stroke="currentColor" stroke-width="3.5" stroke-linecap="round" stroke-linejoin="round"/>
</svg>
