<svg width="48" height="48" viewBox="0 0 48 48" fill="none" xmlns="http://www.w3.org/2000/svg">
<path d="M19.9999 26C20.8588 27.1482 21.9546 28.0984 23.213 28.7859C24.4714 29.4734 25.8629 29.8822 27.2932 29.9847C28.7235 30.0871 30.1591 29.8807 31.5026 29.3796C32.8461 28.8784 34.0661 28.0941 35.0799 27.08L41.0799 21.08C42.9015 19.194 43.9094 16.6679 43.8867 14.046C43.8639 11.424 42.8122 8.91589 40.9581 7.06181C39.104 5.20773 36.5959 4.15604 33.9739 4.13325C31.352 4.11047 28.8259 5.11841 26.9399 6.93999L23.4999 10.36M27.9999 22C27.141 20.8517 26.0452 19.9016 24.7868 19.2141C23.5284 18.5266 22.1369 18.1178 20.7066 18.0153C19.2763 17.9129 17.8407 18.1193 16.4972 18.6204C15.1537 19.1216 13.9337 19.9059 12.9199 20.92L6.91991 26.92C5.09833 28.806 4.09039 31.332 4.11317 33.954C4.13596 36.576 5.18764 39.0841 7.04173 40.9382C8.89581 42.7923 11.4039 43.8439 14.0259 43.8667C16.6479 43.8895 19.1739 42.8816 21.0599 41.06L24.4799 37.64" stroke="currentColor" stroke-width="4" stroke-linecap="round" stroke-linejoin="round"/>
</svg>
