<svg width="40" height="40" viewBox="0 0 40 40" fill="none" xmlns="http://www.w3.org/2000/svg">
<g clip-path="url(#clip0_3002_60182)">
<path d="M24.9998 11.6667H29.9998C31.0942 11.6667 32.1778 11.8822 33.1889 12.301C34.1999 12.7198 35.1186 13.3336 35.8924 14.1075C36.6662 14.8813 37.28 15.7999 37.6988 16.811C38.1176 17.822 38.3332 18.9057 38.3332 20C38.3332 21.0944 38.1176 22.178 37.6988 23.189C37.28 24.2001 36.6662 25.1188 35.8924 25.8926C35.1186 26.6664 34.1999 27.2802 33.1889 27.699C32.1778 28.1178 31.0942 28.3334 29.9998 28.3334H24.9998M14.9998 28.3334H9.99984C8.90549 28.3334 7.82185 28.1178 6.81081 27.699C5.79976 27.2802 4.8811 26.6664 4.10728 25.8926C2.54448 24.3298 1.6665 22.2102 1.6665 20C1.6665 17.7899 2.54448 15.6703 4.10728 14.1075C5.67008 12.5447 7.7897 11.6667 9.99984 11.6667H14.9998M13.3332 20H26.6665" stroke="currentColor" stroke-width="3.5" stroke-linecap="round" stroke-linejoin="round"/>
</g>
<defs>
<clipPath id="clip0_3002_60182">
<rect width="40" height="40" fill="white"/>
</clipPath>
</defs>
</svg>
