<svg width="32" height="32" viewBox="0 0 32 32" fill="none" xmlns="http://www.w3.org/2000/svg">
<g clip-path="url(#clip0_3002_60180)">
<path d="M20.0002 9.33331H24.0002C24.8756 9.33331 25.7426 9.50575 26.5514 9.84078C27.3602 10.1758 28.0952 10.6669 28.7142 11.2859C29.3333 11.905 29.8243 12.6399 30.1594 13.4488C30.4944 14.2576 30.6668 15.1245 30.6668 16C30.6668 16.8755 30.4944 17.7424 30.1594 18.5512C29.8243 19.36 29.3333 20.095 28.7142 20.714C28.0952 21.3331 27.3602 21.8241 26.5514 22.1592C25.7426 22.4942 24.8756 22.6666 24.0002 22.6666H20.0002M12.0002 22.6666H8.00016C7.12468 22.6666 6.25778 22.4942 5.44894 22.1592C4.6401 21.8241 3.90517 21.3331 3.28612 20.714C2.03587 19.4638 1.3335 17.7681 1.3335 16C1.3335 14.2319 2.03587 12.5362 3.28612 11.2859C4.53636 10.0357 6.23205 9.33331 8.00016 9.33331H12.0002M10.6668 16H21.3335" stroke="currentColor" stroke-width="3" stroke-linecap="round" stroke-linejoin="round"/>
</g>
<defs>
<clipPath id="clip0_3002_60180">
<rect width="32" height="32" fill="white"/>
</clipPath>
</defs>
</svg>
