<svg width="32" height="32" viewBox="0 0 32 32" fill="none" xmlns="http://www.w3.org/2000/svg">
<path d="M13.3331 17.3333C13.9057 18.0988 14.6363 18.7322 15.4752 19.1906C16.3141 19.6489 17.2418 19.9215 18.1953 19.9898C19.1488 20.0581 20.1059 19.9205 21.0016 19.5864C21.8972 19.2523 22.7106 18.7294 23.3864 18.0533L27.3864 14.0533C28.6008 12.796 29.2728 11.112 29.2576 9.36399C29.2424 7.61601 28.5413 5.94393 27.3052 4.70787C26.0692 3.47182 24.3971 2.77069 22.6491 2.7555C20.9011 2.74031 19.2171 3.41227 17.9598 4.62666L15.6664 6.90666M18.6664 14.6667C18.0938 13.9012 17.3633 13.2678 16.5244 12.8094C15.6855 12.3511 14.7578 12.0785 13.8042 12.0102C12.8507 11.9419 11.8937 12.0795 10.998 12.4136C10.1023 12.7477 9.28896 13.2706 8.61311 13.9467L4.61311 17.9467C3.39872 19.204 2.72676 20.888 2.74195 22.636C2.75714 24.384 3.45827 26.0561 4.69432 27.2921C5.93038 28.5282 7.60246 29.2293 9.35044 29.2445C11.0984 29.2597 12.7824 28.5877 14.0398 27.3733L16.3198 25.0933" stroke="currentColor" stroke-width="3" stroke-linecap="round" stroke-linejoin="round"/>
</svg>
