<svg width="32" height="32" viewBox="0 0 32 32" fill="none" xmlns="http://www.w3.org/2000/svg">
<g clip-path="url(#clip0_3002_60555)">
<path d="M1.33325 1.33337L30.6666 30.6667M11.9999 12V16C12.0006 16.7907 12.2356 17.5633 12.6752 18.2205C13.1147 18.8776 13.7392 19.3898 14.4697 19.6922C15.2001 19.9947 16.0039 20.0739 16.7793 19.9199C17.5548 19.7658 18.2672 19.3854 18.8266 18.8267M19.9999 12.4534V5.33337C20.0009 4.34141 19.6333 3.38447 18.9684 2.64831C18.3035 1.91215 17.3889 1.4493 16.4019 1.34961C15.415 1.24992 14.4262 1.5205 13.6275 2.10883C12.8289 2.69715 12.2773 3.56125 12.0799 4.53337M22.6666 22.6C21.365 23.9286 19.6961 24.838 17.8741 25.2115C16.052 25.585 14.16 25.4057 12.4406 24.6964C10.7212 23.9872 9.25293 22.7804 8.22415 21.2309C7.19536 19.6814 6.65298 17.8599 6.66659 16V13.3334M25.3333 13.3334V16C25.3328 16.55 25.2837 17.0988 25.1866 17.64M15.9999 25.3334V30.6667M10.6666 30.6667H21.3333" stroke="currentColor" stroke-width="3" stroke-linecap="round" stroke-linejoin="round"/>
</g>
<defs>
<clipPath id="clip0_3002_60555">
<rect width="32" height="32" fill="white"/>
</clipPath>
</defs>
</svg>
