<svg width="20" height="20" viewBox="0 0 20 20" fill="none" xmlns="http://www.w3.org/2000/svg">
<g clip-path="url(#clip0_3002_60626)">
<path d="M15.8332 8.33337V10C15.8332 11.5471 15.2186 13.0309 14.1246 14.1248C13.0307 15.2188 11.5469 15.8334 9.99984 15.8334M9.99984 15.8334C8.45274 15.8334 6.96901 15.2188 5.87505 14.1248C4.78109 13.0309 4.1665 11.5471 4.1665 10V8.33337M9.99984 15.8334V19.1667M6.6665 19.1667H13.3332M9.99984 0.833374C9.3368 0.833374 8.70091 1.09677 8.23207 1.56561C7.76323 2.03445 7.49984 2.67033 7.49984 3.33337V10C7.49984 10.6631 7.76323 11.299 8.23207 11.7678C8.70091 12.2366 9.3368 12.5 9.99984 12.5C10.6629 12.5 11.2988 12.2366 11.7676 11.7678C12.2364 11.299 12.4998 10.6631 12.4998 10V3.33337C12.4998 2.67033 12.2364 2.03445 11.7676 1.56561C11.2988 1.09677 10.6629 0.833374 9.99984 0.833374Z" stroke="currentColor" stroke-width="2" stroke-linecap="round" stroke-linejoin="round"/>
</g>
<defs>
<clipPath id="clip0_3002_60626">
<rect width="20" height="20" fill="white"/>
</clipPath>
</defs>
</svg>
