<svg width="20" height="20" viewBox="0 0 20 20" fill="none" xmlns="http://www.w3.org/2000/svg">
<g clip-path="url(#clip0_3002_60551)">
<path d="M0.833252 0.833329L19.1666 19.1667M7.49992 7.5V10C7.50035 10.4941 7.64721 10.9771 7.92194 11.3878C8.19668 11.7985 8.58696 12.1186 9.04351 12.3076C9.50005 12.4967 10.0024 12.5462 10.487 12.4499C10.9717 12.3536 11.417 12.1158 11.7666 11.7667M12.4999 7.78333V3.33333C12.5005 2.71335 12.2708 2.11526 11.8552 1.65516C11.4397 1.19506 10.868 0.90578 10.2512 0.843473C9.63433 0.781166 9.01634 0.95028 8.51718 1.31799C8.01802 1.68569 7.67329 2.22575 7.54992 2.83333M14.1666 14.125C13.3531 14.9553 12.31 15.5237 11.1713 15.7572C10.0325 15.9906 8.84994 15.8785 7.77533 15.4352C6.70072 14.992 5.78305 14.2377 5.14006 13.2693C4.49707 12.3009 4.15808 11.1624 4.16659 10V8.33333M15.8333 8.33333V10C15.833 10.3437 15.8023 10.6867 15.7416 11.025M9.99992 15.8333V19.1667M6.66659 19.1667H13.3333" stroke="currentColor" stroke-width="2" stroke-linecap="round" stroke-linejoin="round"/>
</g>
<defs>
<clipPath id="clip0_3002_60551">
<rect width="20" height="20" fill="white"/>
</clipPath>
</defs>
</svg>
