<svg width="40" height="40" viewBox="0 0 40 40" fill="none" xmlns="http://www.w3.org/2000/svg">
<g clip-path="url(#clip0_3002_60632)">
<path d="M31.6668 16.6666V20C31.6668 23.0942 30.4377 26.0616 28.2497 28.2495C26.0618 30.4375 23.0944 31.6666 20.0002 31.6666M20.0002 31.6666C16.906 31.6666 13.9385 30.4375 11.7506 28.2495C9.56266 26.0616 8.3335 23.0942 8.3335 20V16.6666M20.0002 31.6666V38.3333M13.3335 38.3333H26.6668M20.0002 1.66663C18.6741 1.66663 17.4023 2.19341 16.4646 3.13109C15.5269 4.06877 15.0002 5.34054 15.0002 6.66663V20C15.0002 21.326 15.5269 22.5978 16.4646 23.5355C17.4023 24.4732 18.6741 25 20.0002 25C21.3262 25 22.598 24.4732 23.5357 23.5355C24.4734 22.5978 25.0002 21.326 25.0002 20V6.66663C25.0002 5.34054 24.4734 4.06877 23.5357 3.13109C22.598 2.19341 21.3262 1.66663 20.0002 1.66663Z" stroke="currentColor" stroke-width="3.5" stroke-linecap="round" stroke-linejoin="round"/>
</g>
<defs>
<clipPath id="clip0_3002_60632">
<rect width="40" height="40" fill="white"/>
</clipPath>
</defs>
</svg>
