<svg width="32" height="32" viewBox="0 0 32 32" fill="none" xmlns="http://www.w3.org/2000/svg">
<g clip-path="url(#clip0_3002_60630)">
<path d="M25.3332 13.3334V16C25.3332 18.4754 24.3498 20.8494 22.5995 22.5997C20.8492 24.35 18.4752 25.3334 15.9998 25.3334M15.9998 25.3334C13.5245 25.3334 11.1505 24.35 9.40017 22.5997C7.64983 20.8494 6.6665 18.4754 6.6665 16V13.3334M15.9998 25.3334V30.6667M10.6665 30.6667H21.3332M15.9998 1.33337C14.939 1.33337 13.9216 1.7548 13.1714 2.50495C12.4213 3.25509 11.9998 4.27251 11.9998 5.33337V16C11.9998 17.0609 12.4213 18.0783 13.1714 18.8285C13.9216 19.5786 14.939 20 15.9998 20C17.0607 20 18.0781 19.5786 18.8283 18.8285C19.5784 18.0783 19.9998 17.0609 19.9998 16V5.33337C19.9998 4.27251 19.5784 3.25509 18.8283 2.50495C18.0781 1.7548 17.0607 1.33337 15.9998 1.33337Z" stroke="currentColor" stroke-width="3" stroke-linecap="round" stroke-linejoin="round"/>
</g>
<defs>
<clipPath id="clip0_3002_60630">
<rect width="32" height="32" fill="white"/>
</clipPath>
</defs>
</svg>
