<svg width="40" height="40" viewBox="0 0 40 40" fill="none" xmlns="http://www.w3.org/2000/svg">
<g clip-path="url(#clip0_3002_61282)">
<path d="M17.8001 22.1833C19.4915 23.8762 21.4031 25.3337 23.4834 26.5166L25.6001 24.4C26.0532 23.9519 26.6253 23.643 27.2486 23.5101C27.8719 23.3772 28.5202 23.4257 29.1167 23.65C30.6289 24.2142 32.2 24.6056 33.8001 24.8166C34.601 24.9298 35.3334 25.3304 35.8609 25.9437C36.3883 26.557 36.6747 27.3411 36.6667 28.15V33.15C36.6686 33.6141 36.5736 34.0736 36.3876 34.4989C36.2016 34.9242 35.9289 35.3059 35.5869 35.6197C35.2448 35.9335 34.841 36.1724 34.4013 36.3211C33.9616 36.4698 33.4957 36.5251 33.0334 36.4833C27.9048 35.926 22.9784 34.1735 18.6501 31.3666C16.6422 30.0917 14.781 28.5994 13.1001 26.9166M8.65008 21.35C5.84317 17.0216 4.09068 12.0952 3.53341 6.96663C3.49177 6.50574 3.54654 6.04123 3.69425 5.60267C3.84196 5.16411 4.07937 4.76111 4.39136 4.41933C4.70335 4.07755 5.08309 3.80447 5.5064 3.6175C5.92971 3.43052 6.38732 3.33373 6.85008 3.33329H11.8501C12.6589 3.32533 13.4431 3.61176 14.0564 4.13918C14.6696 4.6666 15.0702 5.39904 15.1834 6.19996C15.3945 7.80007 15.7858 9.37117 16.3501 10.8833C16.5743 11.4798 16.6229 12.1281 16.4899 12.7514C16.357 13.3747 16.0482 13.9468 15.6001 14.4L13.4834 16.5166M38.3334 1.66663L1.66675 38.3333" stroke="currentColor" stroke-width="3.5" stroke-linecap="round" stroke-linejoin="round"/>
</g>
<defs>
<clipPath id="clip0_3002_61282">
<rect width="40" height="40" fill="white"/>
</clipPath>
</defs>
</svg>
