<svg width="32" height="32" viewBox="0 0 32 32" fill="none" xmlns="http://www.w3.org/2000/svg">
<g clip-path="url(#clip0_3002_61280)">
<path d="M14.2399 17.7467C15.5931 19.101 17.1223 20.2671 18.7866 21.2134L20.4799 19.52C20.8424 19.1616 21.3001 18.9145 21.7987 18.8082C22.2974 18.7018 22.816 18.7407 23.2933 18.92C24.5029 19.3714 25.7598 19.6845 27.0399 19.8534C27.6807 19.9439 28.2666 20.2644 28.6885 20.755C29.1105 21.2457 29.3396 21.873 29.3333 22.52V26.52C29.3348 26.8914 29.2587 27.2589 29.1099 27.5992C28.9612 27.9394 28.743 28.2448 28.4694 28.4959C28.1957 28.7469 27.8727 28.938 27.5209 29.057C27.1692 29.1759 26.7964 29.2201 26.4266 29.1867C22.3237 28.7409 18.3826 27.3389 14.9199 25.0934C13.3136 24.0734 11.8246 22.8796 10.4799 21.5334M6.91992 17.08C4.67439 13.6174 3.2724 9.67626 2.82659 5.57337C2.79327 5.20466 2.83709 4.83305 2.95525 4.48221C3.07342 4.13136 3.26335 3.80896 3.51294 3.53554C3.76253 3.26211 4.06632 3.04365 4.40497 2.89407C4.74362 2.74449 5.10971 2.66706 5.47992 2.66671H9.47992C10.127 2.66034 10.7543 2.88948 11.2449 3.31142C11.7356 3.73336 12.056 4.3193 12.1466 4.96004C12.3154 6.24013 12.6285 7.49701 13.0799 8.70671C13.2593 9.18394 13.2981 9.70259 13.1918 10.2012C13.0855 10.6998 12.8384 11.1575 12.4799 11.52L10.7866 13.2134M30.6666 1.33337L1.33325 30.6667" stroke="currentColor" stroke-width="3" stroke-linecap="round" stroke-linejoin="round"/>
</g>
<defs>
<clipPath id="clip0_3002_61280">
<rect width="32" height="32" fill="white"/>
</clipPath>
</defs>
</svg>
