<svg width="20" height="20" viewBox="0 0 20 20" fill="none" xmlns="http://www.w3.org/2000/svg">
<g clip-path="url(#clip0_3002_61276)">
<path d="M8.89992 11.0917C9.74563 11.9382 10.7014 12.6669 11.7416 13.2584L12.7999 12.2C13.0265 11.976 13.3125 11.8216 13.6242 11.7551C13.9358 11.6887 14.26 11.7129 14.5583 11.825C15.3143 12.1072 16.0999 12.3029 16.8999 12.4084C17.3004 12.465 17.6666 12.6653 17.9303 12.9719C18.194 13.2785 18.3372 13.6706 18.3333 14.075V16.575C18.3342 16.8071 18.2867 17.0368 18.1937 17.2495C18.1007 17.4621 17.9643 17.653 17.7933 17.8099C17.6223 17.9668 17.4204 18.0863 17.2005 18.1606C16.9807 18.235 16.7477 18.2626 16.5166 18.2417C13.9523 17.9631 11.4891 17.0868 9.32492 15.6834C8.32098 15.0459 7.39036 14.2997 6.54992 13.4584M4.32492 10.675C2.92146 8.51088 2.04522 6.04768 1.76659 3.48337C1.74576 3.25293 1.77315 3.02067 1.847 2.80139C1.92086 2.58211 2.03956 2.38062 2.19556 2.20973C2.35155 2.03883 2.54142 1.9023 2.75308 1.80881C2.96473 1.71532 3.19354 1.66693 3.42492 1.66671H5.92492C6.32934 1.66273 6.72141 1.80594 7.02805 2.06965C7.33469 2.33336 7.53498 2.69958 7.59158 3.10004C7.6971 3.9001 7.89279 4.68565 8.17492 5.44171C8.28704 5.73998 8.3113 6.06414 8.24484 6.37577C8.17838 6.68741 8.02397 6.97347 7.79992 7.20004L6.74159 8.25837M19.1666 0.833374L0.833252 19.1667" stroke="currentColor" stroke-width="2" stroke-linecap="round" stroke-linejoin="round"/>
</g>
<defs>
<clipPath id="clip0_3002_61276">
<rect width="20" height="20" fill="white"/>
</clipPath>
</defs>
</svg>
