<svg width="32" height="32" viewBox="0 0 32 32" fill="none" xmlns="http://www.w3.org/2000/svg">
<g clip-path="url(#clip0_3002_61230)">
<path d="M21.3334 2.66671V10.6667M21.3334 10.6667H29.3334M21.3334 10.6667L30.6667 1.33337M29.3334 22.56V26.56C29.3349 26.9314 29.2589 27.2989 29.1101 27.6392C28.9613 27.9794 28.7431 28.2848 28.4695 28.5359C28.1959 28.7869 27.8728 28.978 27.5211 29.097C27.1693 29.2159 26.7966 29.2601 26.4267 29.2267C22.3239 28.7809 18.3827 27.3789 14.9201 25.1334C11.6985 23.0863 8.96719 20.3549 6.92007 17.1334C4.66671 13.655 3.2644 9.6947 2.82674 5.57337C2.79342 5.20466 2.83724 4.83305 2.95541 4.48221C3.07357 4.13136 3.2635 3.80896 3.51309 3.53554C3.76269 3.26211 4.06648 3.04365 4.40513 2.89407C4.74378 2.74449 5.10986 2.66706 5.48007 2.66671H9.48007C10.1271 2.66034 10.7545 2.88948 11.2451 3.31142C11.7357 3.73336 12.0562 4.3193 12.1467 4.96004C12.3156 6.24013 12.6287 7.49701 13.0801 8.70671C13.2595 9.18394 13.2983 9.70259 13.1919 10.2012C13.0856 10.6998 12.8386 11.1575 12.4801 11.52L10.7867 13.2134C12.6848 16.5514 15.4487 19.3153 18.7867 21.2134L20.4801 19.52C20.8426 19.1616 21.3003 18.9145 21.7989 18.8082C22.2975 18.7018 22.8162 18.7407 23.2934 18.92C24.5031 19.3714 25.76 19.6845 27.0401 19.8534C27.6878 19.9447 28.2793 20.271 28.7021 20.77C29.125 21.2691 29.3496 21.9061 29.3334 22.56Z" stroke="currentColor" stroke-width="3" stroke-linecap="round" stroke-linejoin="round"/>
</g>
<defs>
<clipPath id="clip0_3002_61230">
<rect width="32" height="32" fill="white"/>
</clipPath>
</defs>
</svg>
