<svg width="20" height="20" viewBox="0 0 20 20" fill="none" xmlns="http://www.w3.org/2000/svg">
<g clip-path="url(#clip0_3002_61501)">
<path d="M4.99984 7.50008V1.66675H14.9998V7.50008M4.99984 15.0001H3.33317C2.89114 15.0001 2.46722 14.8245 2.15466 14.5119C1.8421 14.1994 1.6665 13.7754 1.6665 13.3334V9.16675C1.6665 8.72472 1.8421 8.3008 2.15466 7.98824C2.46722 7.67568 2.89114 7.50008 3.33317 7.50008H16.6665C17.1085 7.50008 17.5325 7.67568 17.845 7.98824C18.1576 8.3008 18.3332 8.72472 18.3332 9.16675V13.3334C18.3332 13.7754 18.1576 14.1994 17.845 14.5119C17.5325 14.8245 17.1085 15.0001 16.6665 15.0001H14.9998M4.99984 11.6667H14.9998V18.3334H4.99984V11.6667Z" stroke="currentColor" stroke-width="2" stroke-linecap="round" stroke-linejoin="round"/>
</g>
<defs>
<clipPath id="clip0_3002_61501">
<rect width="20" height="20" fill="white"/>
</clipPath>
</defs>
</svg>
