<svg width="40" height="40" viewBox="0 0 40 40" fill="none" xmlns="http://www.w3.org/2000/svg">
<path d="M10.0002 14.9999V3.33325H30.0002V14.9999M10.0002 29.9999H6.66683C5.78277 29.9999 4.93493 29.6487 4.30981 29.0236C3.68469 28.3985 3.3335 27.5506 3.3335 26.6666V18.3333C3.3335 17.4492 3.68469 16.6014 4.30981 15.9762C4.93493 15.3511 5.78277 14.9999 6.66683 14.9999H33.3335C34.2176 14.9999 35.0654 15.3511 35.6905 15.9762C36.3156 16.6014 36.6668 17.4492 36.6668 18.3333V26.6666C36.6668 27.5506 36.3156 28.3985 35.6905 29.0236C35.0654 29.6487 34.2176 29.9999 33.3335 29.9999H30.0002M10.0002 23.3333H30.0002V36.6666H10.0002V23.3333Z" stroke="currentColor" stroke-width="3.5" stroke-linecap="round" stroke-linejoin="round"/>
</svg>
