<svg width="32" height="32" viewBox="0 0 32 32" fill="none" xmlns="http://www.w3.org/2000/svg">
<path d="M21.6533 10.3466C22.3972 11.0896 22.9872 11.9719 23.3898 12.9431C23.7924 13.9142 23.9996 14.9553 23.9996 16.0066C23.9996 17.0579 23.7924 18.0989 23.3898 19.0701C22.9872 20.0413 22.3972 20.9236 21.6533 21.6666M10.3467 21.6532C9.60287 20.9103 9.01279 20.028 8.6102 19.0568C8.20761 18.0856 8.00038 17.0446 8.00038 15.9932C8.00038 14.9419 8.20761 13.9009 8.6102 12.9297C9.01279 11.9585 9.60287 11.0762 10.3467 10.3332M25.4267 6.57324C27.9263 9.07361 29.3305 12.4644 29.3305 15.9999C29.3305 19.5354 27.9263 22.9262 25.4267 25.4266M6.57334 25.4266C4.07373 22.9262 2.66953 19.5354 2.66953 15.9999C2.66953 12.4644 4.07373 9.07361 6.57334 6.57324M18.6667 15.9999C18.6667 17.4727 17.4728 18.6666 16 18.6666C14.5273 18.6666 13.3333 17.4727 13.3333 15.9999C13.3333 14.5271 14.5273 13.3332 16 13.3332C17.4728 13.3332 18.6667 14.5271 18.6667 15.9999Z" stroke="currentColor" stroke-width="3" stroke-linecap="round" stroke-linejoin="round"/>
</svg>
