<svg width="20" height="20" viewBox="0 0 20 20" fill="none" xmlns="http://www.w3.org/2000/svg">
<g clip-path="url(#clip0_3002_61601)">
<path d="M19.1667 3.33331V8.33331M19.1667 8.33331H14.1667M19.1667 8.33331L15.3 4.69998C14.4044 3.80391 13.2964 3.14932 12.0794 2.79729C10.8623 2.44527 9.57596 2.40727 8.34028 2.68686C7.10459 2.96645 5.95987 3.55451 5.01293 4.39616C4.06598 5.23782 3.34768 6.30564 2.92504 7.49998M0.833374 16.6666V11.6666M0.833374 11.6666H5.83337M0.833374 11.6666L4.70004 15.3C5.59566 16.1961 6.70368 16.8506 7.92071 17.2027C9.13774 17.5547 10.4241 17.5927 11.6598 17.3131C12.8955 17.0335 14.0402 16.4455 14.9872 15.6038C15.9341 14.7621 16.6524 13.6943 17.075 12.5" stroke="currentColor" stroke-width="2" stroke-linecap="round" stroke-linejoin="round"/>
</g>
<defs>
<clipPath id="clip0_3002_61601">
<rect width="20" height="20" fill="white"/>
</clipPath>
</defs>
</svg>
