<svg width="40" height="40" viewBox="0 0 40 40" fill="none" xmlns="http://www.w3.org/2000/svg">
<g clip-path="url(#clip0_3002_61557)">
<path d="M1.66663 6.66663V16.6666M1.66663 16.6666H11.6666M1.66663 16.6666L9.39996 9.39996C11.1912 7.60782 13.4072 6.29864 15.8413 5.59459C18.2754 4.89053 20.8481 4.81455 23.3195 5.37373C25.7908 5.93291 28.0803 7.10902 29.9742 8.79233C31.8681 10.4756 33.3047 12.6113 34.15 15M38.3333 33.3333V23.3333M38.3333 23.3333H28.3333M38.3333 23.3333L30.6 30.6C28.8087 32.3921 26.5927 33.7013 24.1586 34.4053C21.7245 35.1094 19.1518 35.1854 16.6804 34.6262C14.2091 34.067 11.9196 32.8909 10.0257 31.2076C8.13185 29.5243 6.69524 27.3887 5.84996 25" stroke="currentColor" stroke-width="3.5" stroke-linecap="round" stroke-linejoin="round"/>
</g>
<defs>
<clipPath id="clip0_3002_61557">
<rect width="40" height="40" fill="white"/>
</clipPath>
</defs>
</svg>
