<svg width="40" height="40" viewBox="0 0 40 40" fill="none" xmlns="http://www.w3.org/2000/svg">
<g clip-path="url(#clip0_3002_61657)">
<path d="M1.66675 6.66674V16.6667M1.66675 16.6667H11.6667M1.66675 16.6667L9.40008 9.40008C11.7016 7.10245 14.6875 5.61503 17.9079 5.16194C21.1283 4.70885 24.4087 5.31463 27.2548 6.88802C30.101 8.4614 32.3587 10.9171 33.6878 13.8852C35.0169 16.8533 35.3454 20.173 34.6238 23.344C33.9022 26.515 32.1695 29.3656 29.687 31.4663C27.2044 33.567 24.1063 34.804 20.8596 34.9909C17.6129 35.1777 14.3934 34.3044 11.6862 32.5024C8.97897 30.7004 6.93074 28.0674 5.85008 25.0001" stroke="currentColor" stroke-width="3.5" stroke-linecap="round" stroke-linejoin="round"/>
</g>
<defs>
<clipPath id="clip0_3002_61657">
<rect width="40" height="40" fill="white"/>
</clipPath>
</defs>
</svg>
