<svg width="32" height="32" viewBox="0 0 32 32" fill="none" xmlns="http://www.w3.org/2000/svg">
<g clip-path="url(#clip0_3002_61730)">
<path d="M30.6667 5.33343V13.3334M30.6667 13.3334H22.6667M30.6667 13.3334L24.4933 7.5201C22.6542 5.67975 20.2667 4.48701 17.6906 4.12162C15.1146 3.75623 12.4896 4.23799 10.2111 5.49429C7.93272 6.75058 6.12433 8.71337 5.05849 11.0869C3.99264 13.4603 3.72708 16.116 4.30182 18.6535C4.87657 21.1911 6.26048 23.4731 8.24501 25.1557C10.2295 26.8383 12.7072 27.8303 15.3046 27.9822C17.9019 28.1342 20.4784 27.4378 22.6455 25.9981C24.8127 24.5584 26.4533 22.4533 27.32 20.0001" stroke="currentColor" stroke-width="3" stroke-linecap="round" stroke-linejoin="round"/>
</g>
<defs>
<clipPath id="clip0_3002_61730">
<rect width="32" height="32" fill="white"/>
</clipPath>
</defs>
</svg>
