<svg width="40" height="40" viewBox="0 0 40 40" fill="none" xmlns="http://www.w3.org/2000/svg">
<g clip-path="url(#clip0_3002_61732)">
<path d="M38.3332 6.66661V16.6666M38.3332 16.6666H28.3332M38.3332 16.6666L30.6166 9.39994C28.3176 7.09951 25.3332 5.60859 22.1131 5.15185C18.8931 4.69511 15.6118 5.2973 12.7638 6.86767C9.91578 8.43805 7.65529 10.8915 6.32299 13.8584C4.99068 16.8253 4.65873 20.1448 5.37716 23.3167C6.09559 26.4886 7.82547 29.3412 10.3061 31.4444C12.7868 33.5476 15.8839 34.7877 19.1306 34.9776C22.3773 35.1675 25.5978 34.2971 28.3068 32.4975C31.0158 30.6978 33.0665 28.0665 34.1499 24.9999" stroke="currentColor" stroke-width="3.5" stroke-linecap="round" stroke-linejoin="round"/>
</g>
<defs>
<clipPath id="clip0_3002_61732">
<rect width="40" height="40" fill="white"/>
</clipPath>
</defs>
</svg>
