<svg width="20" height="20" viewBox="0 0 20 20" fill="none" xmlns="http://www.w3.org/2000/svg">
<g clip-path="url(#clip0_3002_61851)">
<path d="M5.00008 5.00008H5.00841M5.00008 15.0001H5.00841M3.33341 1.66675H16.6667C17.5872 1.66675 18.3334 2.41294 18.3334 3.33341V6.66675C18.3334 7.58722 17.5872 8.33341 16.6667 8.33341H3.33341C2.41294 8.33341 1.66675 7.58722 1.66675 6.66675V3.33341C1.66675 2.41294 2.41294 1.66675 3.33341 1.66675ZM3.33341 11.6667H16.6667C17.5872 11.6667 18.3334 12.4129 18.3334 13.3334V16.6667C18.3334 17.5872 17.5872 18.3334 16.6667 18.3334H3.33341C2.41294 18.3334 1.66675 17.5872 1.66675 16.6667V13.3334C1.66675 12.4129 2.41294 11.6667 3.33341 11.6667Z" stroke="currentColor" stroke-width="2" stroke-linecap="round" stroke-linejoin="round"/>
</g>
<defs>
<clipPath id="clip0_3002_61851">
<rect width="20" height="20" fill="white"/>
</clipPath>
</defs>
</svg>
