<svg width="40" height="40" viewBox="0 0 40 40" fill="none" xmlns="http://www.w3.org/2000/svg">
<path d="M9.99992 9.99992H10.0166M9.99992 29.9999H10.0166M6.66659 3.33325H33.3333C35.1742 3.33325 36.6666 4.82564 36.6666 6.66659V13.3333C36.6666 15.1742 35.1742 16.6666 33.3333 16.6666H6.66659C4.82564 16.6666 3.33325 15.1742 3.33325 13.3333V6.66659C3.33325 4.82564 4.82564 3.33325 6.66659 3.33325ZM6.66659 23.3333H33.3333C35.1742 23.3333 36.6666 24.8256 36.6666 26.6666V33.3333C36.6666 35.1742 35.1742 36.6666 33.3333 36.6666H6.66659C4.82564 36.6666 3.33325 35.1742 3.33325 33.3333V26.6666C3.33325 24.8256 4.82564 23.3333 6.66659 23.3333Z" stroke="currentColor" stroke-width="3.5" stroke-linecap="round" stroke-linejoin="round"/>
</svg>
