<svg width="19" height="18" viewBox="0 0 19 18" fill="none" xmlns="http://www.w3.org/2000/svg">
<path d="M5.90357 11.8516H15.8216C16.9462 11.8516 17.8636 10.9342 17.8636 9.80958V5.63669C17.8636 5.63299 17.8636 5.62559 17.8636 5.62189C17.8636 5.61079 17.8636 5.60339 17.8636 5.5923C17.8636 5.5849 17.8636 5.5775 17.8599 5.5701C17.8599 5.5627 17.8562 5.5516 17.8562 5.5442C17.8562 5.53681 17.8525 5.52941 17.8525 5.52201C17.8488 5.51461 17.8488 5.50721 17.8451 5.49611C17.8414 5.48871 17.8414 5.48131 17.8377 5.47392C17.834 5.46652 17.834 5.45912 17.8303 5.45172C17.8266 5.44432 17.8229 5.43692 17.8192 5.42582C17.8155 5.41843 17.8118 5.41103 17.8081 5.40733C17.8044 5.39993 17.8007 5.39253 17.797 5.38513C17.7933 5.37773 17.7896 5.37403 17.7859 5.36663C17.7823 5.35924 17.7749 5.35184 17.7712 5.34444C17.7675 5.33704 17.7638 5.33334 17.7564 5.32594C17.7527 5.31854 17.7453 5.31484 17.7416 5.30744C17.7379 5.30005 17.7305 5.29635 17.7268 5.28895C17.7231 5.28155 17.7157 5.27785 17.712 5.27415C17.7046 5.26675 17.7009 5.26305 17.6935 5.25565C17.6861 5.25195 17.6824 5.24455 17.675 5.24086C17.6676 5.23716 17.6602 5.22976 17.6528 5.22606C17.6454 5.22236 17.6417 5.21866 17.6343 5.21496C17.6269 5.21126 17.6195 5.20756 17.6121 5.20016C17.6047 5.19646 17.5973 5.19276 17.5899 5.18906C17.5825 5.18536 17.5751 5.18167 17.5677 5.17797C17.5603 5.17427 17.5529 5.17057 17.5455 5.16687C17.5381 5.16317 17.5307 5.16317 17.5233 5.15947C17.5159 5.15577 17.5048 5.15207 17.4974 5.15207C17.49 5.15207 17.4826 5.14837 17.4789 5.14837C17.4678 5.14467 17.4604 5.14467 17.4493 5.14467C17.4456 5.14467 17.4419 5.14097 17.4345 5.14097L4.86404 3.40597V1.65246C4.86404 1.63397 4.86404 1.61547 4.86034 1.60067C4.86034 1.59697 4.86034 1.59327 4.85664 1.58587C4.85664 1.57478 4.85294 1.56368 4.85294 1.55258C4.84924 1.54148 4.84924 1.53408 4.84554 1.52299C4.84554 1.51559 4.84185 1.51189 4.84185 1.50449C4.83815 1.49339 4.83445 1.48229 4.83075 1.47119C4.83075 1.46749 4.82705 1.4601 4.82705 1.4564C4.82335 1.4453 4.81965 1.4379 4.81225 1.4268C4.80855 1.4231 4.80855 1.4157 4.80485 1.412C4.80115 1.40461 4.79745 1.39721 4.79005 1.38981C4.78636 1.38241 4.78266 1.37871 4.77896 1.37131C4.77526 1.36391 4.77156 1.36021 4.76786 1.35281C4.76416 1.34542 4.75676 1.33802 4.75306 1.33062C4.74936 1.32692 4.74566 1.32322 4.74196 1.31952C4.73456 1.31212 4.72717 1.30472 4.71977 1.29732C4.71607 1.29362 4.71237 1.28992 4.70867 1.28623C4.70127 1.27883 4.69387 1.27143 4.68277 1.26403C4.67907 1.26033 4.67167 1.25663 4.66797 1.25293C4.66058 1.24553 4.65318 1.24183 4.64578 1.23443C4.63468 1.22704 4.62358 1.21964 4.61618 1.21594C4.61248 1.21224 4.60879 1.21224 4.60509 1.20854C4.59029 1.20114 4.57179 1.19374 4.55699 1.18634L1.83056 0.039537C1.5753 -0.0677448 1.28305 0.0506352 1.17577 0.305892C1.06849 0.561149 1.18687 0.853399 1.44212 0.960681L3.86151 1.98171V4.24572V4.60456V7.3569V9.81698V12.9245C3.86151 13.9603 4.63838 14.8185 5.64091 14.948C5.45964 15.2514 5.35236 15.6065 5.35236 15.9838C5.35236 17.0973 6.25871 18 7.36852 18C8.47833 18 9.38467 17.0936 9.38467 15.9838C9.38467 15.6139 9.28479 15.2625 9.10722 14.9665H13.5983C13.4207 15.2662 13.3208 15.6139 13.3208 15.9838C13.3208 17.0973 14.2272 18 15.337 18C16.4468 18 17.3531 17.0936 17.3531 15.9838C17.3531 14.874 16.4468 13.9677 15.337 13.9677H5.90357C5.32646 13.9677 4.86034 13.4979 4.86034 12.9245V11.5705C5.16369 11.7481 5.52253 11.8516 5.90357 11.8516ZM8.38954 15.9801C8.38954 16.5424 7.93082 16.9975 7.37222 16.9975C6.81361 16.9975 6.35489 16.5387 6.35489 15.9801C6.35489 15.4215 6.81361 14.9628 7.37222 14.9628C7.93082 14.9628 8.38954 15.4178 8.38954 15.9801ZM16.358 15.9801C16.358 16.5424 15.8993 16.9975 15.3407 16.9975C14.7821 16.9975 14.3233 16.5387 14.3233 15.9801C14.3233 15.4215 14.7821 14.9628 15.3407 14.9628C15.8993 14.9628 16.358 15.4178 16.358 15.9801ZM15.8216 10.8528H5.90357C5.32646 10.8528 4.86034 10.383 4.86034 9.80958V7.3495V4.59716V4.4122L16.8648 6.06582V9.80588C16.8648 10.3867 16.395 10.8528 15.8216 10.8528Z" fill="currentColor"/>
</svg>
