<svg width="20" height="20" viewBox="0 0 20 20" fill="none" xmlns="http://www.w3.org/2000/svg">
<g clip-path="url(#clip0_3002_62176)">
<path d="M12.0834 8.33341C11.3917 8.33341 10.8334 7.77508 10.8334 7.08341V2.91675C10.8334 2.22508 11.3917 1.66675 12.0834 1.66675C12.7751 1.66675 13.3334 2.22508 13.3334 2.91675V7.08341C13.3334 7.77508 12.7751 8.33341 12.0834 8.33341Z" stroke="currentColor" stroke-width="2" stroke-linecap="round" stroke-linejoin="round"/>
<path d="M17.0834 8.33341H15.8334V7.08341C15.8334 6.39175 16.3917 5.83341 17.0834 5.83341C17.7751 5.83341 18.3334 6.39175 18.3334 7.08341C18.3334 7.77508 17.7751 8.33341 17.0834 8.33341Z" stroke="currentColor" stroke-width="2" stroke-linecap="round" stroke-linejoin="round"/>
<path d="M7.91675 11.6667C8.60841 11.6667 9.16675 12.2251 9.16675 12.9167V17.0834C9.16675 17.7751 8.60841 18.3334 7.91675 18.3334C7.22508 18.3334 6.66675 17.7751 6.66675 17.0834V12.9167C6.66675 12.2251 7.22508 11.6667 7.91675 11.6667Z" stroke="currentColor" stroke-width="2" stroke-linecap="round" stroke-linejoin="round"/>
<path d="M2.91675 11.6667H4.16675V12.9167C4.16675 13.6084 3.60841 14.1667 2.91675 14.1667C2.22508 14.1667 1.66675 13.6084 1.66675 12.9167C1.66675 12.2251 2.22508 11.6667 2.91675 11.6667Z" stroke="currentColor" stroke-width="2" stroke-linecap="round" stroke-linejoin="round"/>
<path d="M11.6667 12.0834C11.6667 11.3917 12.2251 10.8334 12.9167 10.8334H17.0834C17.7751 10.8334 18.3334 11.3917 18.3334 12.0834C18.3334 12.7751 17.7751 13.3334 17.0834 13.3334H12.9167C12.2251 13.3334 11.6667 12.7751 11.6667 12.0834Z" stroke="currentColor" stroke-width="2" stroke-linecap="round" stroke-linejoin="round"/>
<path d="M12.9167 15.8334H11.6667V17.0834C11.6667 17.7751 12.2251 18.3334 12.9167 18.3334C13.6084 18.3334 14.1667 17.7751 14.1667 17.0834C14.1667 16.3917 13.6084 15.8334 12.9167 15.8334Z" stroke="currentColor" stroke-width="2" stroke-linecap="round" stroke-linejoin="round"/>
<path d="M8.33341 7.91675C8.33341 7.22508 7.77508 6.66675 7.08341 6.66675H2.91675C2.22508 6.66675 1.66675 7.22508 1.66675 7.91675C1.66675 8.60841 2.22508 9.16675 2.91675 9.16675H7.08341C7.77508 9.16675 8.33341 8.60841 8.33341 7.91675Z" stroke="currentColor" stroke-width="2" stroke-linecap="round" stroke-linejoin="round"/>
<path d="M7.08341 4.16675H8.33341V2.91675C8.33341 2.22508 7.77508 1.66675 7.08341 1.66675C6.39175 1.66675 5.83341 2.22508 5.83341 2.91675C5.83341 3.60841 6.39175 4.16675 7.08341 4.16675Z" stroke="currentColor" stroke-width="2" stroke-linecap="round" stroke-linejoin="round"/>
</g>
<defs>
<clipPath id="clip0_3002_62176">
<rect width="20" height="20" fill="white"/>
</clipPath>
</defs>
</svg>
