<svg width="40" height="40" viewBox="0 0 40 40" fill="none" xmlns="http://www.w3.org/2000/svg">
<path d="M24.1666 16.6666C22.7833 16.6666 21.6666 15.5499 21.6666 14.1666V5.83325C21.6666 4.44992 22.7833 3.33325 24.1666 3.33325C25.5499 3.33325 26.6666 4.44992 26.6666 5.83325V14.1666C26.6666 15.5499 25.5499 16.6666 24.1666 16.6666Z" stroke="currentColor" stroke-width="3.5" stroke-linecap="round" stroke-linejoin="round"/>
<path d="M34.1666 16.6666H31.6666V14.1666C31.6666 12.7833 32.7833 11.6666 34.1666 11.6666C35.5499 11.6666 36.6666 12.7833 36.6666 14.1666C36.6666 15.5499 35.5499 16.6666 34.1666 16.6666Z" stroke="currentColor" stroke-width="3.5" stroke-linecap="round" stroke-linejoin="round"/>
<path d="M15.8333 23.3333C17.2166 23.3333 18.3333 24.4499 18.3333 25.8333V34.1666C18.3333 35.5499 17.2166 36.6666 15.8333 36.6666C14.4499 36.6666 13.3333 35.5499 13.3333 34.1666V25.8333C13.3333 24.4499 14.4499 23.3333 15.8333 23.3333Z" stroke="currentColor" stroke-width="3.5" stroke-linecap="round" stroke-linejoin="round"/>
<path d="M5.83325 23.3333H8.33325V25.8333C8.33325 27.2166 7.21659 28.3333 5.83325 28.3333C4.44992 28.3333 3.33325 27.2166 3.33325 25.8333C3.33325 24.4499 4.44992 23.3333 5.83325 23.3333Z" stroke="currentColor" stroke-width="3.5" stroke-linecap="round" stroke-linejoin="round"/>
<path d="M23.3333 24.1666C23.3333 22.7833 24.4499 21.6666 25.8333 21.6666H34.1666C35.5499 21.6666 36.6666 22.7833 36.6666 24.1666C36.6666 25.5499 35.5499 26.6666 34.1666 26.6666H25.8333C24.4499 26.6666 23.3333 25.5499 23.3333 24.1666Z" stroke="currentColor" stroke-width="3.5" stroke-linecap="round" stroke-linejoin="round"/>
<path d="M25.8333 31.6666H23.3333V34.1666C23.3333 35.5499 24.4499 36.6666 25.8333 36.6666C27.2166 36.6666 28.3333 35.5499 28.3333 34.1666C28.3333 32.7833 27.2166 31.6666 25.8333 31.6666Z" stroke="currentColor" stroke-width="3.5" stroke-linecap="round" stroke-linejoin="round"/>
<path d="M16.6666 15.8333C16.6666 14.4499 15.5499 13.3333 14.1666 13.3333H5.83325C4.44992 13.3333 3.33325 14.4499 3.33325 15.8333C3.33325 17.2166 4.44992 18.3333 5.83325 18.3333H14.1666C15.5499 18.3333 16.6666 17.2166 16.6666 15.8333Z" stroke="currentColor" stroke-width="3.5" stroke-linecap="round" stroke-linejoin="round"/>
<path d="M14.1666 8.33325H16.6666V5.83325C16.6666 4.44992 15.5499 3.33325 14.1666 3.33325C12.7833 3.33325 11.6666 4.44992 11.6666 5.83325C11.6666 7.21659 12.7833 8.33325 14.1666 8.33325Z" stroke="currentColor" stroke-width="3.5" stroke-linecap="round" stroke-linejoin="round"/>
</svg>
