<svg width="24" height="24" viewBox="0 0 24 24" fill="none" xmlns="http://www.w3.org/2000/svg">
<path d="M19.435 8.12094L8.12132 19.4346C7.7308 19.8252 7.09763 19.8252 6.70711 19.4346C6.31658 19.0441 6.31658 18.411 6.70711 18.0204L18.0208 6.70672C18.4113 6.3162 19.0445 6.3162 19.435 6.70672C19.8256 7.09725 19.8256 7.73041 19.435 8.12094Z" fill="currentColor"/>
<path d="M18.7279 14.4849L14.4853 18.7275C14.0948 19.1181 13.4616 19.1181 13.0711 18.7275C12.6805 18.337 12.6805 17.7038 13.0711 17.3133L17.3137 13.0707C17.7042 12.6802 18.3374 12.6802 18.7279 13.0707C19.1184 13.4612 19.1184 14.0944 18.7279 14.4849Z" fill="currentColor"/>
</svg>
