<svg width="20" height="20" viewBox="0 0 20 20" fill="none" xmlns="http://www.w3.org/2000/svg">
<g clip-path="url(#clip0_3002_62551)">
<path d="M11.6666 12.2999V2.91659C11.6666 2.36405 11.4471 1.83415 11.0564 1.44345C10.6657 1.05275 10.1358 0.833252 9.58325 0.833252C9.03072 0.833252 8.50081 1.05275 8.11011 1.44345C7.71941 1.83415 7.49992 2.36405 7.49992 2.91659V12.2999C6.83098 12.7469 6.32352 13.3971 6.05248 14.1546C5.78144 14.9121 5.76119 15.7366 5.99472 16.5065C6.22825 17.2764 6.70318 17.9507 7.34937 18.43C7.99555 18.9092 8.77874 19.168 9.58325 19.168C10.3878 19.168 11.1709 18.9092 11.8171 18.43C12.4633 17.9507 12.9383 17.2764 13.1718 16.5065C13.4053 15.7366 13.3851 14.9121 13.114 14.1546C12.843 13.3971 12.3355 12.7469 11.6666 12.2999Z" stroke="currentColor" stroke-width="2" stroke-linecap="round" stroke-linejoin="round"/>
</g>
<defs>
<clipPath id="clip0_3002_62551">
<rect width="20" height="20" fill="white"/>
</clipPath>
</defs>
</svg>
