<svg width="40" height="40" viewBox="0 0 40 40" fill="none" xmlns="http://www.w3.org/2000/svg">
<path d="M11.6668 18.3333L18.3335 3.33325C19.6596 3.33325 20.9313 3.86004 21.869 4.79772C22.8067 5.7354 23.3335 7.00717 23.3335 8.33325V14.9999H32.7668C33.25 14.9944 33.7286 15.0941 34.1694 15.2919C34.6103 15.4898 35.0029 15.7811 35.3199 16.1458C35.637 16.5104 35.871 16.9396 36.0057 17.4037C36.1405 17.8677 36.1727 18.3555 36.1002 18.8333L33.8002 33.8333C33.6796 34.6281 33.2759 35.3526 32.6633 35.8733C32.0508 36.3939 31.2707 36.6757 30.4668 36.6666H11.6668M11.6668 18.3333V36.6666M11.6668 18.3333H6.66683C5.78277 18.3333 4.93493 18.6844 4.30981 19.3096C3.68469 19.9347 3.3335 20.7825 3.3335 21.6666V33.3333C3.3335 34.2173 3.68469 35.0652 4.30981 35.6903C4.93493 36.3154 5.78277 36.6666 6.66683 36.6666H11.6668" stroke="currentColor" stroke-width="3.5" stroke-linecap="round" stroke-linejoin="round"/>
</svg>
