<svg width="32" height="32" viewBox="0 0 32 32" fill="none" xmlns="http://www.w3.org/2000/svg">
<path d="M9.33317 14.6667L14.6665 2.66675C15.7274 2.66675 16.7448 3.08818 17.4949 3.83832C18.2451 4.58847 18.6665 5.60588 18.6665 6.66675V12.0001H26.2132C26.5997 11.9957 26.9826 12.0754 27.3353 12.2337C27.6879 12.392 28.002 12.6251 28.2556 12.9168C28.5093 13.2085 28.6965 13.5518 28.8043 13.9231C28.9121 14.2943 28.9378 14.6846 28.8798 15.0667L27.0398 27.0667C26.9434 27.7026 26.6204 28.2822 26.1304 28.6988C25.6403 29.1153 25.0163 29.3407 24.3732 29.3334H9.33317M9.33317 14.6667V29.3334M9.33317 14.6667H5.33317C4.62593 14.6667 3.94765 14.9477 3.44755 15.4478C2.94746 15.9479 2.6665 16.6262 2.6665 17.3334V26.6667C2.6665 27.374 2.94746 28.0523 3.44755 28.5524C3.94765 29.0525 4.62593 29.3334 5.33317 29.3334H9.33317" stroke="currentColor" stroke-width="3" stroke-linecap="round" stroke-linejoin="round"/>
</svg>
