<svg width="40" height="40" viewBox="0 0 40 40" fill="none" xmlns="http://www.w3.org/2000/svg">
<g clip-path="url(#clip0_3002_62857)">
<path d="M26.6665 26.6667V5H1.6665V26.6667H26.6665ZM26.6665 26.6667H38.3332V18.3333L33.3332 13.3333H26.6665L26.6665 26.6667ZM13.3332 30.8333C13.3332 33.1345 11.4677 35 9.1665 35C6.86532 35 4.99984 33.1345 4.99984 30.8333C4.99984 28.5321 6.86532 26.6667 9.1665 26.6667C11.4677 26.6667 13.3332 28.5321 13.3332 30.8333ZM34.9998 30.8333C34.9998 33.1345 33.1344 35 30.8332 35C28.532 35 26.6665 33.1345 26.6665 30.8333C26.6665 28.5321 28.532 26.6667 30.8332 26.6667C33.1344 26.6667 34.9998 28.5321 34.9998 30.8333Z" stroke="currentColor" stroke-width="3.5" stroke-linecap="round" stroke-linejoin="round"/>
</g>
<defs>
<clipPath id="clip0_3002_62857">
<rect width="40" height="40" fill="white"/>
</clipPath>
</defs>
</svg>
