<svg width="32" height="32" viewBox="0 0 32 32" fill="none" xmlns="http://www.w3.org/2000/svg">
<g clip-path="url(#clip0_3002_62855)">
<path d="M21.3335 21.3333V4H1.3335V21.3333H21.3335ZM21.3335 21.3333H30.6668V14.6667L26.6668 10.6667H21.3335L21.3335 21.3333ZM10.6668 24.6667C10.6668 26.5076 9.17445 28 7.3335 28C5.49255 28 4.00016 26.5076 4.00016 24.6667C4.00016 22.8257 5.49255 21.3333 7.3335 21.3333C9.17445 21.3333 10.6668 22.8257 10.6668 24.6667ZM28.0002 24.6667C28.0002 26.5076 26.5078 28 24.6668 28C22.8259 28 21.3335 26.5076 21.3335 24.6667C21.3335 22.8257 22.8259 21.3333 24.6668 21.3333C26.5078 21.3333 28.0002 22.8257 28.0002 24.6667Z" stroke="currentColor" stroke-width="3" stroke-linecap="round" stroke-linejoin="round"/>
</g>
<defs>
<clipPath id="clip0_3002_62855">
<rect width="32" height="32" fill="white"/>
</clipPath>
</defs>
</svg>
