<svg width="40" height="40" viewBox="0 0 40 40" fill="none" xmlns="http://www.w3.org/2000/svg">
<g clip-path="url(#clip0_3002_62982)">
<path d="M38.3333 4.99991C36.7373 6.12571 34.9701 6.98676 33.1 7.54991C32.0962 6.39577 30.7622 5.57773 29.2783 5.20646C27.7945 4.83518 26.2325 4.92857 24.8034 5.474C23.3744 6.01943 22.1474 6.99058 21.2883 8.25611C20.4292 9.52163 19.9795 11.0205 20 12.5499V14.2166C17.071 14.2925 14.1687 13.6429 11.5516 12.3257C8.93453 11.0084 6.68382 9.06431 4.99996 6.66658C4.99996 6.66658 -1.66671 21.6666 13.3333 28.3332C9.90084 30.6632 5.81189 31.8315 1.66663 31.6666C16.6666 39.9999 35 31.6666 35 12.4999C34.9984 12.0357 34.9538 11.5726 34.8666 11.1166C36.5676 9.43907 37.768 7.3211 38.3333 4.99991Z" stroke="currentColor" stroke-width="3.5" stroke-linecap="round" stroke-linejoin="round"/>
</g>
<defs>
<clipPath id="clip0_3002_62982">
<rect width="40" height="40" fill="white"/>
</clipPath>
</defs>
</svg>
