<svg width="40" height="40" viewBox="0 0 40 40" fill="none" xmlns="http://www.w3.org/2000/svg">
<g clip-path="url(#clip0_3002_63107)">
<path d="M26.6667 35V31.6667C26.6667 29.8986 25.9643 28.2029 24.7141 26.9526C23.4638 25.7024 21.7681 25 20 25H8.33335C6.56524 25 4.86955 25.7024 3.61931 26.9526C2.36907 28.2029 1.66669 29.8986 1.66669 31.6667V35M28.3334 18.3333L31.6667 21.6667L38.3334 15M20.8334 11.6667C20.8334 15.3486 17.8486 18.3333 14.1667 18.3333C10.4848 18.3333 7.50002 15.3486 7.50002 11.6667C7.50002 7.98477 10.4848 5 14.1667 5C17.8486 5 20.8334 7.98477 20.8334 11.6667Z" stroke="currentColor" stroke-width="3.5" stroke-linecap="round" stroke-linejoin="round"/>
</g>
<defs>
<clipPath id="clip0_3002_63107">
<rect width="40" height="40" fill="white"/>
</clipPath>
</defs>
</svg>
