<svg width="32" height="32" viewBox="0 0 32 32" fill="none" xmlns="http://www.w3.org/2000/svg">
<g clip-path="url(#clip0_3002_63180)">
<path d="M21.3334 28V25.3333C21.3334 23.9188 20.7715 22.5623 19.7713 21.5621C18.7711 20.5619 17.4145 20 16 20H6.66671C5.25222 20 3.89567 20.5619 2.89547 21.5621C1.89528 22.5623 1.33337 23.9188 1.33337 25.3333V28M30.6667 14.6667H22.6667M16.6667 9.33333C16.6667 12.2789 14.2789 14.6667 11.3334 14.6667C8.38786 14.6667 6.00004 12.2789 6.00004 9.33333C6.00004 6.38781 8.38786 4 11.3334 4C14.2789 4 16.6667 6.38781 16.6667 9.33333Z" stroke="currentColor" stroke-width="3" stroke-linecap="round" stroke-linejoin="round"/>
</g>
<defs>
<clipPath id="clip0_3002_63180">
<rect width="32" height="32" fill="white"/>
</clipPath>
</defs>
</svg>
