<svg width="18" height="18" viewBox="0 0 18 18" fill="none" xmlns="http://www.w3.org/2000/svg">
<g clip-path="url(#clip0_4945_9745)">
<path fill-rule="evenodd" clip-rule="evenodd" d="M8.89258 0.490234C7.88189 0.501143 6.83202 0.80376 6.01686 1.5031C5.20428 2.20023 4.61184 3.30269 4.53247 4.94059L4.53191 4.94794C4.51597 5.10201 4.44045 5.97814 4.57615 7.04787C4.71218 8.12023 5.05826 9.36841 5.87049 10.284C6.09094 10.5328 6.33962 10.7495 6.60562 10.9268L6.71454 10.9994L6.64531 11.1105C6.32089 11.6312 5.29572 12.6482 2.09171 13.4502C1.40965 13.6229 0.894132 14.0307 0.563397 14.6355C0.230891 15.2435 0.0816429 16.0585 0.152116 17.0433C0.169344 17.3018 0.388924 17.5021 0.646828 17.5021H0.685117C0.955651 17.4794 1.16052 17.2418 1.14054 16.9735C1.11251 16.5736 1.11507 16.0173 1.26752 15.5209C1.4209 15.0214 1.73425 14.5631 2.3347 14.4094C5.90077 13.5161 7.14692 12.306 7.5733 11.4914L7.6233 11.3959L7.72752 11.4235C8.07604 11.516 8.4509 11.5662 8.85259 11.5735H8.99742C9.44593 11.5662 9.86342 11.5052 10.2434 11.3916L10.3523 11.359L10.4029 11.4608C10.7929 12.2443 11.998 13.4906 15.6666 14.4132C16.2689 14.5669 16.5816 15.025 16.7346 15.5247C16.8866 16.0212 16.8881 16.5781 16.8601 16.9777C16.8401 17.246 17.0456 17.483 17.3161 17.5057H17.3544C17.6123 17.5057 17.8314 17.305 17.8486 17.0466C17.9173 16.0597 17.768 15.2453 17.4355 14.6373C17.1048 14.0327 16.5893 13.6248 15.9053 13.4502C12.5257 12.6007 11.5719 11.5384 11.3028 11.0286L11.2479 10.9246L11.3434 10.856C11.5713 10.6922 11.784 10.5041 11.975 10.2848L11.9758 10.2839C12.788 9.36833 13.134 8.12023 13.2701 7.04787C13.4058 5.97814 13.3303 5.10201 13.3143 4.94794L13.3137 4.94032C13.2182 2.88519 12.3696 1.78555 11.4379 1.19176C10.4981 0.592865 9.45611 0.497545 8.96441 0.490234H8.89258ZM9.04156 10.5762C9.96721 10.5462 10.6884 10.2399 11.2361 9.62477C11.9453 8.82922 12.2158 7.67855 12.3127 6.74224C12.41 5.80183 12.3293 5.00148 12.3293 5.00148C12.2616 3.51212 11.7238 2.62704 11.0345 2.11687C10.3513 1.61127 9.53998 1.48925 8.94874 1.48172L8.94702 1.48171L8.90657 1.4817L8.90528 1.48171C8.31217 1.48736 7.49973 1.60745 6.81598 2.11266C6.12604 2.62246 5.58825 3.50858 5.52056 5.00149C5.52056 4.99857 5.44303 5.80927 5.53999 6.74592C5.6369 7.68213 5.90635 8.83276 6.61373 9.62832C7.18009 10.2606 7.93605 10.5706 8.90498 10.582L9.04156 10.5762Z" fill="currentColor"/>
</g>
<defs>
<clipPath id="clip0_4945_9745">
<rect width="18" height="18" fill="white"/>
</clipPath>
</defs>
</svg>
