<svg width="32" height="32" viewBox="0 0 32 32" fill="none" xmlns="http://www.w3.org/2000/svg">
<g clip-path="url(#clip0_3002_63280)">
<path d="M21.3333 21.3335V22.6668C21.3333 23.3741 21.0523 24.0524 20.5522 24.5524C20.0521 25.0525 19.3738 25.3335 18.6666 25.3335H3.99992C3.29267 25.3335 2.6144 25.0525 2.1143 24.5524C1.6142 24.0524 1.33325 23.3741 1.33325 22.6668V9.3335C1.33325 8.62625 1.6142 7.94798 2.1143 7.44788C2.6144 6.94778 3.29267 6.66683 3.99992 6.66683H6.66659M14.2133 6.66683H18.6666C19.3738 6.66683 20.0521 6.94778 20.5522 7.44788C21.0523 7.94798 21.3333 8.62625 21.3333 9.3335V13.7868L22.6666 15.1202L30.6666 9.3335V22.6668M1.33325 1.3335L30.6666 30.6668" stroke="currentColor" stroke-width="3" stroke-linecap="round" stroke-linejoin="round"/>
</g>
<defs>
<clipPath id="clip0_3002_63280">
<rect width="32" height="32" fill="white"/>
</clipPath>
</defs>
</svg>
