<svg width="40" height="40" viewBox="0 0 40 40" fill="none" xmlns="http://www.w3.org/2000/svg">
<g clip-path="url(#clip0_3002_63282)">
<path d="M26.6667 26.6665V28.3332C26.6667 29.2172 26.3156 30.0651 25.6904 30.6902C25.0653 31.3153 24.2175 31.6665 23.3334 31.6665H5.00008C4.11603 31.6665 3.26818 31.3153 2.64306 30.6902C2.01794 30.0651 1.66675 29.2172 1.66675 28.3332V11.6665C1.66675 10.7824 2.01794 9.9346 2.64306 9.30948C3.26818 8.68436 4.11603 8.33317 5.00008 8.33317H8.33341M17.7667 8.33317H23.3334C24.2175 8.33317 25.0653 8.68436 25.6904 9.30948C26.3156 9.9346 26.6667 10.7824 26.6667 11.6665V17.2332L28.3334 18.8998L38.3334 11.6665V28.3332M1.66675 1.6665L38.3334 38.3332" stroke="currentColor" stroke-width="3.5" stroke-linecap="round" stroke-linejoin="round"/>
</g>
<defs>
<clipPath id="clip0_3002_63282">
<rect width="40" height="40" fill="white"/>
</clipPath>
</defs>
</svg>
