<svg width="20" height="20" viewBox="0 0 20 20" fill="none" xmlns="http://www.w3.org/2000/svg">
<g clip-path="url(#clip0_3002_63276)">
<path d="M13.3333 13.3335V14.1668C13.3333 14.6089 13.1577 15.0328 12.8451 15.3453C12.5325 15.6579 12.1086 15.8335 11.6666 15.8335H2.49992C2.05789 15.8335 1.63397 15.6579 1.32141 15.3453C1.00885 15.0328 0.833252 14.6089 0.833252 14.1668V5.8335C0.833252 5.39147 1.00885 4.96755 1.32141 4.65498C1.63397 4.34242 2.05789 4.16683 2.49992 4.16683H4.16658M8.88325 4.16683H11.6666C12.1086 4.16683 12.5325 4.34242 12.8451 4.65498C13.1577 4.96755 13.3333 5.39147 13.3333 5.8335V8.61683L14.1666 9.45016L19.1666 5.8335V14.1668M0.833252 0.833496L19.1666 19.1668" stroke="currentColor" stroke-width="2" stroke-linecap="round" stroke-linejoin="round"/>
</g>
<defs>
<clipPath id="clip0_3002_63276">
<rect width="20" height="20" fill="white"/>
</clipPath>
</defs>
</svg>
