<svg width="40" height="40" viewBox="0 0 40 40" fill="none" xmlns="http://www.w3.org/2000/svg">
<g clip-path="url(#clip0_3002_63482)">
<path d="M19.9999 14.9999V19.9999L22.4999 22.4999M27.5166 28.9165L26.9333 35.2999C26.8582 36.1309 26.4741 36.9036 25.8569 37.4652C25.2397 38.0269 24.4344 38.3366 23.5999 38.3332H16.3833C15.5488 38.3366 14.7434 38.0269 14.1263 37.4652C13.5091 36.9036 13.125 36.1309 13.0499 35.2999L12.4666 28.9165M12.4833 11.0832L13.0666 4.69986C13.1414 3.87166 13.5231 3.10134 14.1368 2.54012C14.7504 1.9789 15.5517 1.66731 16.3833 1.66653H23.6333C24.4677 1.66315 25.2731 1.97286 25.8902 2.53449C26.5074 3.09611 26.8915 3.86879 26.9666 4.69986L27.5499 11.0832M31.6666 19.9999C31.6666 26.4432 26.4432 31.6665 19.9999 31.6665C13.5566 31.6665 8.33325 26.4432 8.33325 19.9999C8.33325 13.5565 13.5566 8.3332 19.9999 8.3332C26.4432 8.3332 31.6666 13.5565 31.6666 19.9999Z" stroke="currentColor" stroke-width="3.5" stroke-linecap="round" stroke-linejoin="round"/>
</g>
<defs>
<clipPath id="clip0_3002_63482">
<rect width="40" height="40" fill="white"/>
</clipPath>
</defs>
</svg>
