<svg width="32" height="32" viewBox="0 0 32 32" fill="none" xmlns="http://www.w3.org/2000/svg">
<g clip-path="url(#clip0_3002_63480)">
<path d="M16.0001 12.0002V16.0002L18.0001 18.0002M22.0134 23.1335L21.5467 28.2402C21.4867 28.905 21.1794 29.5232 20.6857 29.9725C20.1919 30.4218 19.5476 30.6696 18.8801 30.6669H13.1067C12.4392 30.6696 11.7949 30.4218 11.3012 29.9725C10.8074 29.5232 10.5002 28.905 10.4401 28.2402L9.97341 23.1335M9.98675 8.86685L10.4534 3.76018C10.5133 3.09762 10.8187 2.48136 11.3096 2.03239C11.8005 1.58341 12.4415 1.33414 13.1067 1.33352H18.9067C19.5743 1.33081 20.2186 1.57858 20.7123 2.02788C21.2061 2.47718 21.5133 3.09533 21.5734 3.76018L22.0401 8.86685M25.3334 16.0002C25.3334 21.1548 21.1547 25.3335 16.0001 25.3335C10.8454 25.3335 6.66675 21.1548 6.66675 16.0002C6.66675 10.8455 10.8454 6.66685 16.0001 6.66685C21.1547 6.66685 25.3334 10.8455 25.3334 16.0002Z" stroke="currentColor" stroke-width="3" stroke-linecap="round" stroke-linejoin="round"/>
</g>
<defs>
<clipPath id="clip0_3002_63480">
<rect width="32" height="32" fill="white"/>
</clipPath>
</defs>
</svg>
