<svg width="20" height="20" viewBox="0 0 20 20" fill="none" xmlns="http://www.w3.org/2000/svg">
<g clip-path="url(#clip0_3002_63476)">
<path d="M10.0001 7.50018V10.0002L11.2501 11.2502M13.7584 14.4585L13.4667 17.6502C13.4292 18.0657 13.2372 18.4521 12.9286 18.7329C12.62 19.0137 12.2173 19.1685 11.8001 19.1668H8.19175C7.77452 19.1685 7.37184 19.0137 7.06325 18.7329C6.75467 18.4521 6.56263 18.0657 6.52508 17.6502L6.23341 14.4585M6.24175 5.54184L6.53341 2.35018C6.57084 1.93607 6.76169 1.55091 7.06851 1.2703C7.37533 0.989694 7.77596 0.833901 8.19175 0.83351H11.8167C12.234 0.831817 12.6367 0.986675 12.9452 1.26749C13.2538 1.5483 13.4459 1.93464 13.4834 2.35018L13.7751 5.54184M15.8334 10.0002C15.8334 13.2218 13.2217 15.8335 10.0001 15.8335C6.77842 15.8335 4.16675 13.2218 4.16675 10.0002C4.16675 6.77852 6.77842 4.16684 10.0001 4.16684C13.2217 4.16684 15.8334 6.77852 15.8334 10.0002Z" stroke="currentColor" stroke-width="2" stroke-linecap="round" stroke-linejoin="round"/>
</g>
<defs>
<clipPath id="clip0_3002_63476">
<rect width="20" height="20" fill="white"/>
</clipPath>
</defs>
</svg>
