<svg width="20" height="20" viewBox="0 0 20 20" fill="none" xmlns="http://www.w3.org/2000/svg">
<g clip-path="url(#clip0_3002_63451)">
<path d="M0.833252 0.833496L19.1666 19.1668M13.9333 9.21683C14.6158 9.54996 15.2541 9.96708 15.8333 10.4585M4.16659 10.4585C5.40165 9.42585 6.88815 8.73867 8.47492 8.46683M8.92492 4.2085C10.7103 4.06464 12.5063 4.28197 14.2058 4.84751C15.9053 5.41306 17.4734 6.31523 18.8166 7.50016M1.18325 7.50016C2.33922 6.47837 3.66467 5.66618 5.09992 5.10016M7.10825 13.4252C7.95425 12.8241 8.96631 12.5012 10.0041 12.5012C11.0419 12.5012 12.0539 12.8241 12.8999 13.4252M9.99992 16.6668H10.0083" stroke="currentColor" stroke-width="2" stroke-linecap="round" stroke-linejoin="round"/>
</g>
<defs>
<clipPath id="clip0_3002_63451">
<rect width="20" height="20" fill="white"/>
</clipPath>
</defs>
</svg>
