<svg width="40" height="40" viewBox="0 0 40 40" fill="none" xmlns="http://www.w3.org/2000/svg">
<g clip-path="url(#clip0_3002_63457)">
<path d="M1.66675 1.6665L38.3334 38.3332M27.8667 18.4332C29.2319 19.0994 30.5085 19.9337 31.6667 20.9165M8.33342 20.9165C10.8036 18.8512 13.7765 17.4769 16.9501 16.9332M17.8501 8.4165C21.4208 8.12879 25.0128 8.56345 28.4118 9.69454C31.8108 10.8256 34.9471 12.63 37.6334 14.9998M2.36675 14.9998C4.67869 12.9563 7.32958 11.3319 10.2001 10.1998M14.2167 26.8498C15.9088 25.6478 17.9329 25.0019 20.0084 25.0019C22.084 25.0019 24.1081 25.6478 25.8001 26.8498M20.0001 33.3332H20.0167" stroke="currentColor" stroke-width="3.5" stroke-linecap="round" stroke-linejoin="round"/>
</g>
<defs>
<clipPath id="clip0_3002_63457">
<rect width="40" height="40" fill="white"/>
</clipPath>
</defs>
</svg>
