<svg width="32" height="32" viewBox="0 0 32 32" fill="none" xmlns="http://www.w3.org/2000/svg">
<g clip-path="url(#clip0_3002_63455)">
<path d="M1.33325 1.3335L30.6666 30.6668M22.2933 14.7468C23.3854 15.2798 24.4066 15.9472 25.3333 16.7335M6.66659 16.7335C8.6427 15.0813 11.0211 13.9818 13.5599 13.5468M14.2799 6.7335C17.1365 6.50332 20.0101 6.85105 22.7293 7.75592C25.4485 8.6608 27.9575 10.1043 30.1066 12.0002M1.89325 12.0002C3.74281 10.3653 5.86352 9.0658 8.15992 8.16016M11.3733 21.4802C12.7269 20.5185 14.3461 20.0018 16.0066 20.0018C17.667 20.0018 19.2863 20.5185 20.6399 21.4802M15.9999 26.6668H16.0133" stroke="currentColor" stroke-width="3" stroke-linecap="round" stroke-linejoin="round"/>
</g>
<defs>
<clipPath id="clip0_3002_63455">
<rect width="32" height="32" fill="white"/>
</clipPath>
</defs>
</svg>
