<svg width="16" height="16" viewBox="0 0 16 16" fill="none" xmlns="http://www.w3.org/2000/svg">
<g clip-path="url(#clip0_4708_13452)">
<path d="M15.9814 3.03576C15.9584 3.00872 15.9206 2.99954 15.8883 3.01429C15.4099 3.22651 14.9067 3.37907 14.3884 3.4692C14.9387 3.05526 15.3487 2.48204 15.5589 1.82474C15.5691 1.79328 15.5586 1.75887 15.5329 1.73838C15.507 1.7179 15.4711 1.71528 15.4427 1.73216C14.823 2.09972 14.1517 2.3588 13.4468 2.50252C12.8221 1.85424 11.9498 1.4834 11.047 1.4834C9.21099 1.4834 7.71745 2.97693 7.71745 4.81279C7.71745 5.03484 7.73892 5.25476 7.78153 5.46828C5.23856 5.31129 2.86077 4.09044 1.24401 2.10742C1.22745 2.0871 1.20238 2.0758 1.17616 2.07842C1.15011 2.08039 1.12684 2.09513 1.11373 2.11758C0.818757 2.62362 0.662915 3.20258 0.662915 3.79154C0.662915 4.8123 1.12667 5.76669 1.91637 6.39645C1.50981 6.34762 1.11274 6.21964 0.754683 6.02086C0.730594 6.00726 0.700605 6.00742 0.676516 6.02135C0.652427 6.03512 0.637187 6.06068 0.636531 6.08854L0.636204 6.13114C0.636204 7.59715 1.60223 8.88436 2.97663 9.31174C2.61463 9.37008 2.23904 9.36615 1.86983 9.29568C1.84263 9.2906 1.81412 9.29994 1.79544 9.32092C1.77692 9.34189 1.77069 9.37123 1.77921 9.39777C2.19135 10.6842 3.33649 11.5863 4.66943 11.6987C3.55756 12.5133 2.2433 12.9425 0.854645 12.9425C0.598841 12.9425 0.341234 12.9273 0.0888702 12.8976C0.0528183 12.8935 0.0170941 12.915 0.00463985 12.9495C-0.00781445 12.9844 0.00545921 13.0234 0.0365949 13.0433C1.5393 14.007 3.27684 14.5162 5.06158 14.5162C10.8995 14.5162 14.388 9.77403 14.388 5.18953C14.388 5.06188 14.3856 4.93488 14.3805 4.8082C15.0103 4.34756 15.5509 3.78367 15.9868 3.13097C16.0063 3.1018 16.0041 3.06296 15.9814 3.03576Z" fill="currentColor"/>
</g>
<defs>
<clipPath id="clip0_4708_13452">
<rect width="16" height="16" fill="white"/>
</clipPath>
</defs>
</svg>
