<svg width="16" height="16" viewBox="0 0 16 16" fill="none" xmlns="http://www.w3.org/2000/svg">
<g clip-path="url(#clip0_4708_13455)">
<path d="M15.3374 10.8071C14.861 10.2357 14.3004 9.74807 13.77 9.23024C13.2915 8.76349 13.2613 8.49272 13.646 7.954C14.0658 7.36604 14.5173 6.80063 14.9409 6.21532C15.3364 5.66831 15.7406 5.1228 15.9487 4.46785C16.0807 4.05117 15.964 3.86712 15.5367 3.79416C15.4631 3.78139 15.387 3.78073 15.312 3.78073L12.777 3.77775C12.4647 3.7731 12.2921 3.90923 12.1817 4.18597C12.0326 4.56004 11.8789 4.93377 11.7014 5.29474C11.2984 6.11318 10.8484 6.90426 10.2175 7.57413C10.0784 7.72187 9.92453 7.90857 9.69207 7.83164C9.40124 7.72552 9.31551 7.24633 9.32032 7.08433L9.31783 4.15828C9.26146 3.74027 9.16877 3.5539 8.75375 3.47266L6.12035 3.47315C5.76884 3.47315 5.59258 3.60895 5.40488 3.82882C5.29661 3.95583 5.26394 4.03823 5.48646 4.08035C5.92354 4.16325 6.16976 4.44613 6.23509 4.88436C6.33989 5.58458 6.33259 6.28761 6.27224 6.99065C6.25449 7.19592 6.21918 7.4007 6.13776 7.59237C6.01042 7.89365 5.80482 7.955 5.53471 7.76962C5.29014 7.60182 5.11836 7.36505 4.95023 7.12727C4.31866 6.23489 3.81477 5.27252 3.40389 4.26125C3.28517 3.96909 3.08039 3.79201 2.77083 3.7872C2.01026 3.77509 1.24952 3.7731 0.488949 3.78786C0.0313129 3.79648 -0.105149 4.01867 0.0812217 4.43353C0.909608 6.27617 1.83168 8.06758 3.03529 9.69949C3.65327 10.537 4.36277 11.2763 5.27937 11.8003C6.31817 12.3942 7.43639 12.573 8.61414 12.5179C9.16562 12.4921 9.33126 12.3486 9.3568 11.799C9.37404 11.4229 9.41666 11.049 9.6022 10.7111C9.78426 10.3795 10.06 10.3163 10.3779 10.5226C10.5369 10.6259 10.6708 10.7574 10.7974 10.896C11.1078 11.2355 11.407 11.5854 11.7292 11.9135C12.1333 12.3248 12.612 12.5677 13.2139 12.5181L15.5438 12.5186C15.9192 12.494 16.1139 12.0338 15.8983 11.6148C15.747 11.3213 15.5483 11.06 15.3374 10.8071Z" fill="currentColor"/>
</g>
<defs>
<clipPath id="clip0_4708_13455">
<rect width="16" height="16" fill="white"/>
</clipPath>
</defs>
</svg>
