<svg width="20" height="20" viewBox="0 0 20 20" fill="none" xmlns="http://www.w3.org/2000/svg">
<g clip-path="url(#clip0_2766_10552)">
<path d="M8.24219 5.7959V16.4087C8.62871 16.4413 9.0198 16.4642 9.41406 16.475V5.84797C9.02477 5.83945 8.63438 5.82227 8.24219 5.7959Z" fill="black"/>
<path d="M5.89844 5.51562C5.89844 5.7493 5.89844 15.5753 5.89844 16.057C6.27203 16.1425 6.66539 16.2139 7.07031 16.2739V5.68758C6.67207 5.64051 6.27996 5.58449 5.89844 5.51562Z" fill="black"/>
<path d="M15.2734 5.25941V5.27324C15.2734 5.52895 15.2734 15.2155 15.2734 15.7232C16.6784 15.2313 17.6172 14.5054 17.6172 13.5545V4.27051C17.0076 4.6907 16.1948 5.01516 15.2734 5.25941Z" fill="black"/>
<path d="M12.9297 16.2739C13.3346 16.2139 13.728 16.1425 14.1016 16.057C14.1016 15.7541 14.1016 6.01035 14.1016 5.51562C13.72 5.58449 13.3279 5.64051 12.9297 5.68758V16.2739Z" fill="black"/>
<path d="M2.38281 4.27051V13.5545C2.38281 14.5054 3.32164 15.2313 4.72656 15.7232C4.72656 15.4208 4.72656 5.43445 4.72656 5.2732V5.27109V5.25941C3.80516 5.01516 2.99242 4.69063 2.38281 4.27051Z" fill="black"/>
<path d="M10.5859 5.84797V16.475C10.9802 16.4642 11.3713 16.4413 11.7578 16.4087V5.7959C11.3656 5.82227 10.9752 5.83945 10.5859 5.84797Z" fill="black"/>
<path d="M10 17.6561C7.75195 17.6561 5.29789 17.3239 3.55469 16.5137V17.6561C3.55469 19.2663 6.89578 19.9998 10 19.9998C13.1042 19.9998 16.4453 19.2663 16.4453 17.6561V16.5137C14.7021 17.3239 12.248 17.6561 10 17.6561Z" fill="black"/>
<path d="M10 2.34375C12.2652 2.34375 14.1016 1.81908 14.1016 1.17188C14.1016 0.524666 12.2652 0 10 0C7.73477 0 5.89844 0.524666 5.89844 1.17188C5.89844 1.81908 7.73477 2.34375 10 2.34375Z" fill="black"/>
<path d="M15.1657 0.625C15.2291 0.793008 15.2734 0.971328 15.2734 1.17211C15.2734 3.34707 11.2371 3.51586 10 3.51586C8.76289 3.51586 4.72656 3.34707 4.72656 1.17211C4.72656 0.971328 4.7709 0.793008 4.83434 0.625C3.33031 1.05316 2.38281 1.66379 2.38281 2.34398C2.38281 3.6384 5.79316 4.68773 10 4.68773C14.2068 4.68773 17.6172 3.6384 17.6172 2.34398C17.6172 1.66379 16.6697 1.05316 15.1657 0.625Z" fill="black"/>
</g>
<defs>
<clipPath id="clip0_2766_10552">
<rect width="20" height="20" fill="white"/>
</clipPath>
</defs>
</svg>
