<svg width="69" height="24" viewBox="0 0 69 24" fill="none" xmlns="http://www.w3.org/2000/svg">
<path fill-rule="evenodd" clip-rule="evenodd" d="M16.959 0L14.6933 5.77037H0V0H16.959Z" fill="#EA3F00"/>
<path fill-rule="evenodd" clip-rule="evenodd" d="M6.08404 9.80917H13.3599L9.75614 18.4977H17.3543V24H0.180356L6.08404 9.80917Z" fill="black"/>
<path fill-rule="evenodd" clip-rule="evenodd" d="M29.3475 0H37.7758L26.1442 12.0242L37.7758 23.9824H29.2743L20.4896 14.8764V9.10603L29.3475 0Z" fill="black"/>
<path fill-rule="evenodd" clip-rule="evenodd" d="M59.4568 0C62.8896 0 65.3117 0.77788 66.7278 2.33364C67.9778 3.718 68.6029 5.97693 68.6029 9.10603V23.9824H61.5077V9.10603C61.5077 7.77001 61.2587 6.87786 60.7704 6.43399C60.2772 5.99011 59.2859 5.77037 57.7965 5.77037H46.9951V23.9824H39.8999V0H59.4568Z" fill="black"/>
<path fill-rule="evenodd" clip-rule="evenodd" d="M50.7062 9.10602H57.7965V23.9824H50.7062V9.10602Z" fill="black"/>
</svg>
