<svg width="48" height="48" viewBox="0 0 48 48" fill="none" xmlns="http://www.w3.org/2000/svg">
<path d="M33.1119 13.8228H14.8877C14.4994 13.8228 14.1846 14.1375 14.1846 14.5259C14.1846 14.9143 14.4994 15.229 14.8877 15.229H33.112C33.5003 15.229 33.8151 14.9143 33.8151 14.5259C33.8151 14.1375 33.5003 13.8228 33.1119 13.8228Z" fill="currentColor"/>
<path d="M44.4975 8.97054H43.93H36.6366V3.14803C36.6366 1.41225 35.2243 0 33.4884 0H14.512C12.7761 0 11.3638 1.41225 11.3638 3.14803V8.97054H4.07049H3.50302C2.49493 8.97054 1.6748 9.79076 1.6748 10.7988V11.3662C1.6748 12.0319 1.6748 41.9049 1.6748 42.5514C1.6748 43.5594 2.49502 44.3796 3.50302 44.3796H5.72189V45.6041C5.72189 46.9253 6.79664 48 8.11767 48H10.3744C11.6954 48 12.7702 46.9253 12.7702 45.6041V44.3796H35.2302V45.6041C35.2302 46.9253 36.305 48 37.626 48H39.8827C41.2038 48 42.2785 46.9253 42.2785 45.6041V44.3796H44.4974C45.5055 44.3796 46.3256 43.5594 46.3256 42.5514V28.3158C46.3256 27.9274 46.0108 27.6127 45.6225 27.6127C45.2342 27.6127 44.9193 27.9274 44.9193 28.3158V42.5514C44.9193 42.78 44.7261 42.9732 44.4975 42.9732C44.1314 42.9732 3.87427 42.9732 3.50302 42.9732C3.27436 42.9732 3.08115 42.78 3.08115 42.5514V19.0641L19.2085 26.6176C19.2083 26.6295 19.2067 26.6411 19.2067 26.6531V29.1045C19.2067 30.1126 20.0269 30.9328 21.0349 30.9328H22.3596C22.7479 30.9328 23.0627 30.618 23.0627 30.2296C23.0627 29.8412 22.7479 29.5265 22.3596 29.5265H21.0349C20.8062 29.5265 20.613 29.3333 20.613 29.1046V26.6531C20.613 26.4219 20.8093 26.2312 21.0349 26.2312C21.6816 26.2312 26.3633 26.2312 26.9657 26.2312C27.1927 26.2312 27.3876 26.4231 27.3876 26.6531V29.1045C27.3876 29.3332 27.1943 29.5264 26.9657 29.5264H25.641C25.2527 29.5264 24.9379 29.8411 24.9379 30.2295C24.9379 30.6179 25.2527 30.9327 25.641 30.9327H26.9657C27.9738 30.9327 28.7939 30.1125 28.7939 29.1044V26.6531C28.7939 26.6411 28.7923 26.6295 28.7921 26.6176L44.9194 19.0641V25.0344C44.9194 25.4228 45.2343 25.7375 45.6226 25.7375C46.0109 25.7375 46.3257 25.4228 46.3257 25.0344C46.3257 24.6257 46.3257 12.3942 46.3257 11.3662V10.7988C46.3257 9.79067 45.5055 8.97054 44.4975 8.97054ZM36.6366 44.3796H40.8722V45.6041C40.8722 46.1497 40.4284 46.5937 39.8827 46.5937H37.626C37.0805 46.5937 36.6366 46.1498 36.6366 45.6041V44.3796ZM7.12833 44.3796H11.3639V45.6041C11.3639 46.1497 10.9201 46.5937 10.3745 46.5937H8.11767C7.57214 46.5937 7.12823 46.1498 7.12823 45.6041V44.3796H7.12833ZM12.7702 3.14803C12.7702 2.18765 13.5515 1.40634 14.512 1.40634H33.4883C34.4488 1.40634 35.2301 2.18765 35.2301 3.14803V8.97054H33.8154V3.52415C33.8154 3.13574 33.5006 2.82103 33.1123 2.82103H14.8881C14.4998 2.82103 14.185 3.13574 14.185 3.52415V8.97054H12.7703V3.14803H12.7702ZM32.4092 4.22737V8.97054H15.5912V4.22737H32.4092ZM44.9193 17.5111L28.226 25.3298C27.9025 25.0214 27.4478 24.8249 26.9655 24.8249C26.3519 24.8249 21.6488 24.8249 21.0347 24.8249C20.5659 24.8249 20.1052 25.0141 19.7742 25.3298L3.08096 17.5111V11.3661C3.08096 10.8207 3.52477 10.3767 4.07039 10.3767C4.47924 10.3767 43.4707 10.3767 43.9299 10.3767C44.4754 10.3767 44.9193 10.8205 44.9193 11.3661V17.5111Z" fill="currentColor"/>
</svg>
