<svg width="24" height="24" viewBox="0 0 24 24" fill="none" xmlns="http://www.w3.org/2000/svg">
<g clip-path="url(#clip0_4848_14672)">
<path d="M4.99692 0C2.50219 0 0.472595 2.02964 0.472595 4.52433C0.472595 6.19875 1.21158 7.95216 2.60972 9.59508C3.64866 10.8159 4.67845 11.5463 4.72177 11.5768C4.80427 11.6349 4.9006 11.6639 4.99692 11.6639C5.0932 11.6639 5.18953 11.6349 5.27213 11.5768C5.31544 11.5463 6.34524 10.8159 7.38417 9.59508C8.78227 7.95216 9.52125 6.19875 9.52125 4.52433C9.5213 2.02964 7.4917 0 4.99692 0ZM4.9965 10.5838C4.11572 9.87914 1.42875 7.48631 1.42875 4.52433C1.42875 2.5568 3.02944 0.956156 4.99692 0.956156C6.96441 0.956156 8.56505 2.5568 8.56505 4.52433C8.56505 7.47937 5.87644 9.87811 4.9965 10.5838Z" fill="currentColor"/>
<path d="M4.99701 2.27002C3.75388 2.27002 2.74255 3.28135 2.74255 4.52447C2.74255 5.7676 3.75388 6.77893 4.99701 6.77893C6.24009 6.77893 7.25147 5.7676 7.25147 4.52447C7.25151 3.28135 6.24014 2.27002 4.99701 2.27002ZM4.99701 5.82277C4.28113 5.82277 3.69871 5.24035 3.69871 4.52447C3.69871 3.8086 4.28113 3.22618 4.99701 3.22618C5.71289 3.22618 6.29531 3.8086 6.29531 4.52447C6.29531 5.24035 5.71293 5.82277 4.99701 5.82277Z" fill="currentColor"/>
<path d="M13.6821 13.6685C11.4649 13.6685 9.66119 15.4723 9.66119 17.6893C9.66119 21.2359 13.254 23.8053 13.4069 23.9129C13.4895 23.971 13.5858 24 13.6821 24C13.7785 24 13.8747 23.971 13.9573 23.9129C14.1103 23.8053 17.7031 21.2359 17.7031 17.6893C17.703 15.4723 15.8992 13.6685 13.6821 13.6685ZM13.6821 22.9183C12.8822 22.2697 10.6173 20.2106 10.6173 17.6893C10.6173 15.9995 11.9922 14.6246 13.6821 14.6246C15.372 14.6246 16.7468 15.9995 16.7468 17.6893C16.7468 20.2108 14.4817 22.27 13.6821 22.9183Z" fill="currentColor"/>
<path d="M13.682 15.6558C12.5607 15.6558 11.6486 16.5679 11.6486 17.6892C11.6486 18.8104 12.5607 19.7226 13.682 19.7226C14.8032 19.7226 15.7154 18.8104 15.7154 17.6892C15.7155 16.5679 14.8032 15.6558 13.682 15.6558ZM13.682 18.7664C13.088 18.7664 12.6047 18.2832 12.6047 17.6892C12.6047 17.0951 13.0879 16.6119 13.682 16.6119C14.276 16.6119 14.7593 17.0951 14.7593 17.6892C14.7593 18.2832 14.276 18.7664 13.682 18.7664Z" fill="currentColor"/>
<path d="M16.6111 23.0439H16.3721C16.1081 23.0439 15.894 23.258 15.894 23.522C15.894 23.7861 16.1081 24.0001 16.3721 24.0001H16.6111C16.8751 24.0001 17.0892 23.7861 17.0892 23.522C17.0892 23.258 16.8751 23.0439 16.6111 23.0439Z" fill="currentColor"/>
<path d="M19.6272 22.9028C19.5289 22.6577 19.2505 22.5388 19.0056 22.637C18.9377 22.6642 18.8683 22.6905 18.7994 22.7151C18.5506 22.8038 18.421 23.0773 18.5097 23.326C18.5795 23.5216 18.7636 23.6436 18.96 23.6436C19.0133 23.6436 19.0676 23.6346 19.1207 23.6157C19.2011 23.5869 19.2821 23.5563 19.3614 23.5245C19.6065 23.4263 19.7255 23.1479 19.6272 22.9028Z" fill="currentColor"/>
<path d="M21.6755 21.2734C21.4848 21.0908 21.1822 21.0974 20.9995 21.2881C20.9493 21.3406 20.8968 21.3932 20.8438 21.4446C20.6541 21.6282 20.6492 21.9309 20.8328 22.1206C20.9265 22.2175 21.0514 22.2662 21.1764 22.2662C21.2961 22.2662 21.416 22.2215 21.5088 22.1317C21.5705 22.0719 21.6315 22.0106 21.6902 21.9494C21.8728 21.7586 21.8662 21.4559 21.6755 21.2734Z" fill="currentColor"/>
<path d="M22.869 18.9441C22.6201 18.8567 22.3471 18.9879 22.2597 19.2371C22.2357 19.3057 22.2097 19.3754 22.1825 19.4442C22.0857 19.6898 22.2061 19.9675 22.4517 20.0644C22.5094 20.0872 22.5687 20.0979 22.6271 20.0979C22.8176 20.0979 22.9978 19.9832 23.0719 19.7953C23.1035 19.715 23.1339 19.6336 23.162 19.5533C23.2494 19.3042 23.1182 19.0314 22.869 18.9441Z" fill="currentColor"/>
<path d="M23.5092 16.7639C23.486 16.5008 23.2536 16.3064 22.991 16.3295C22.7279 16.3527 22.5335 16.5846 22.5566 16.8477C22.563 16.9206 22.5681 16.9946 22.5717 17.0676C22.5842 17.3234 22.7955 17.5222 23.0488 17.5222C23.0567 17.5222 23.0646 17.5221 23.0727 17.5217C23.3364 17.5088 23.5397 17.2844 23.5267 17.0207C23.5225 16.9354 23.5166 16.849 23.5092 16.7639Z" fill="currentColor"/>
<path d="M22.7961 14.3058C22.7571 14.2304 22.7159 14.1544 22.6735 14.0797C22.5433 13.85 22.2515 13.7695 22.0218 13.8997C21.7921 14.03 21.7115 14.3218 21.8418 14.5514C21.878 14.6154 21.9133 14.6804 21.9466 14.7448C22.0315 14.9093 22.1986 15.0036 22.3717 15.0036C22.4456 15.0036 22.5206 14.9863 22.5908 14.9501C22.8254 14.8287 22.9172 14.5403 22.7961 14.3058Z" fill="currentColor"/>
<path d="M21.0078 12.1375C20.9411 12.0848 20.8721 12.0323 20.8025 11.9815C20.5892 11.826 20.2902 11.8726 20.1345 12.0859C19.9789 12.2993 20.0256 12.5983 20.2389 12.754C20.2984 12.7974 20.3574 12.8423 20.4144 12.8874C20.5022 12.9568 20.6068 12.9906 20.7108 12.9906C20.8519 12.9906 20.9916 12.9284 21.086 12.8091C21.2499 12.6021 21.2149 12.3015 21.0078 12.1375Z" fill="currentColor"/>
<path d="M18.4828 10.9001C18.4 10.8797 18.3155 10.8606 18.2315 10.8433C17.973 10.7903 17.7201 10.9569 17.667 11.2155C17.6139 11.4742 17.7806 11.7269 18.0392 11.78C18.111 11.7947 18.1833 11.8111 18.254 11.8285C18.2924 11.8379 18.3309 11.8425 18.3688 11.8425C18.5837 11.8425 18.779 11.6966 18.8327 11.4786C18.8959 11.2223 18.7392 10.9633 18.4828 10.9001Z" fill="currentColor"/>
<path d="M15.7537 10.7075H15.5146C15.2506 10.7075 15.0366 10.9216 15.0366 11.1856C15.0366 11.4496 15.2506 11.6637 15.5146 11.6637H15.7537C16.0177 11.6637 16.2318 11.4496 16.2318 11.1856C16.2318 10.9216 16.0177 10.7075 15.7537 10.7075Z" fill="currentColor"/>
<path d="M13.1244 10.7075H12.8854C12.6214 10.7075 12.4073 10.9216 12.4073 11.1856C12.4073 11.4496 12.6214 11.6637 12.8854 11.6637H13.1244C13.3885 11.6637 13.6025 11.4496 13.6025 11.1856C13.6025 10.9216 13.3884 10.7075 13.1244 10.7075Z" fill="currentColor"/>
<path d="M10.495 10.7075H10.256C9.99192 10.7075 9.77789 10.9216 9.77789 11.1856C9.77789 11.4496 9.99192 11.6637 10.256 11.6637H10.495C10.759 11.6637 10.9731 11.4496 10.9731 11.1856C10.9731 10.9216 10.7591 10.7075 10.495 10.7075Z" fill="currentColor"/>
<path d="M7.86546 10.7075H7.62639C7.36235 10.7075 7.14832 10.9216 7.14832 11.1856C7.14832 11.4496 7.36235 11.6637 7.62639 11.6637H7.86546C8.12946 11.6637 8.34353 11.4496 8.34353 11.1856C8.34353 10.9216 8.1295 10.7075 7.86546 10.7075Z" fill="currentColor"/>
</g>
<defs>
<clipPath id="clip0_4848_14672">
<rect width="24" height="24" fill="white"/>
</clipPath>
</defs>
</svg>
