<svg width="24" height="24" viewBox="0 0 24 24" fill="none" xmlns="http://www.w3.org/2000/svg">
<g clip-path="url(#clip0_4848_14721)">
<path d="M23.8659 12.242C23.8755 12.2327 23.8815 12.2271 23.8815 12.2271L20.3315 8.1744C20.3315 8.1744 20.3228 8.17815 20.3082 8.18406C20.2205 8.07854 20.0883 8.01132 19.9404 8.01132H16.8842V5.14361C16.8842 4.87961 16.6702 4.66553 16.4062 4.66553H1.37344C1.10939 4.66553 0.895359 4.87961 0.895359 5.14361V15.6455H0.478078C0.214031 15.6455 0 15.8596 0 16.1236C0 16.3876 0.214031 16.6016 0.478078 16.6016H0.895359V17.1603C0.895359 17.4243 1.10939 17.6384 1.37344 17.6384H2.31558C2.53406 18.6081 3.40177 19.3349 4.43653 19.3349C5.4713 19.3349 6.339 18.6081 6.55753 17.6384H17.7724V17.6384C17.9909 18.6081 18.8586 19.3348 19.8934 19.3348C20.9281 19.3348 21.7958 18.6081 22.0144 17.6384H23.522C23.786 17.6384 24 17.4243 24 17.1603V12.5735C24 12.4447 23.9488 12.328 23.8659 12.242ZM4.43653 18.3787C3.76472 18.3787 3.21816 17.8321 3.21816 17.1603C3.21816 16.4885 3.76472 15.9419 4.43653 15.9419C5.10834 15.9419 5.65495 16.4885 5.65495 17.1603C5.65491 17.8321 5.10839 18.3787 4.43653 18.3787ZM15.9281 16.6822H6.55748C6.339 15.7125 5.4713 14.9857 4.43648 14.9857C3.40172 14.9857 2.53402 15.7125 2.31553 16.6822H1.85152V14.5753H15.928V16.6822H15.9281ZM15.9281 13.6191H1.85152V5.62164H15.928V13.6191H15.9281ZM20.4186 9.72489L22.4951 12.0954H20.4186V9.72489ZM19.8933 18.3787C19.2215 18.3787 18.675 17.8321 18.675 17.1603C18.675 16.4885 19.2215 15.9419 19.8933 15.9419C20.5651 15.9419 21.1118 16.4885 21.1118 17.1603C21.1118 17.8321 20.5651 18.3787 19.8933 18.3787ZM23.0438 16.6822H22.0143C21.7958 15.7125 20.9281 14.9857 19.8933 14.9857C18.8586 14.9857 17.9909 15.7125 17.7724 16.6822H16.8842V8.96743H19.4624V12.5735C19.4624 12.8375 19.6764 13.0516 19.9404 13.0516H23.0438V16.6822H23.0438Z" fill="currentColor"/>
<path d="M14.7727 12.1436H10.7568C10.4928 12.1436 10.2787 12.3576 10.2787 12.6216C10.2787 12.8856 10.4928 13.0997 10.7568 13.0997H14.7727C15.0368 13.0997 15.2508 12.8856 15.2508 12.6216C15.2508 12.3576 15.0368 12.1436 14.7727 12.1436Z" fill="currentColor"/>
<path d="M9.27521 12.1436H8.98833C8.72428 12.1436 8.51025 12.3576 8.51025 12.6216C8.51025 12.8856 8.72428 13.0997 8.98833 13.0997H9.27521C9.53925 13.0997 9.75328 12.8856 9.75328 12.6216C9.75328 12.3576 9.53925 12.1436 9.27521 12.1436Z" fill="currentColor"/>
</g>
<defs>
<clipPath id="clip0_4848_14721">
<rect width="24" height="24" fill="white"/>
</clipPath>
</defs>
</svg>
