<svg width="24" height="24" viewBox="0 0 24 24" fill="none" xmlns="http://www.w3.org/2000/svg">
<g clip-path="url(#clip0_4848_14659)">
<path d="M23.3881 13.8262C23.1293 13.7739 22.8771 13.9413 22.8247 14.2001C21.7891 19.3245 17.2366 23.0438 12 23.0438C5.91042 23.0438 0.956156 18.0896 0.956156 12C0.956156 5.91037 5.91042 0.956156 12 0.956156C14.8728 0.956156 17.6269 2.07975 19.679 4.06373H18.4433C18.1792 4.06373 17.9652 4.27777 17.9652 4.54181C17.9652 4.80586 18.1792 5.01989 18.4433 5.01989H20.8447C21.1087 5.01989 21.3227 4.80586 21.3227 4.54181V2.1405C21.3227 1.87645 21.1087 1.66242 20.8447 1.66242C20.5806 1.66242 20.3666 1.87645 20.3666 2.1405V3.399C18.1345 1.22944 15.1323 0 12 0C8.79469 0 5.78123 1.24819 3.51469 3.51469C1.24819 5.78123 0 8.79469 0 12C0 15.2053 1.24819 18.2188 3.51469 20.4853C5.78123 22.7518 8.79469 24 12 24C14.7862 24 17.5009 23.0236 19.6441 21.2507C21.7589 19.5013 23.2214 17.0646 23.762 14.3895C23.8143 14.1307 23.6469 13.8785 23.3881 13.8262Z" fill="currentColor"/>
<path d="M23.5217 11.522C23.2576 11.522 23.0436 11.736 23.0436 12.0001C23.0436 12.107 23.0421 12.215 23.039 12.321C23.0315 12.585 23.2393 12.8051 23.5032 12.8126C23.5079 12.8127 23.5125 12.8128 23.5171 12.8128C23.7748 12.8128 23.9874 12.6077 23.9948 12.3484C23.9981 12.2333 23.9998 12.1161 23.9998 12.0001C23.9998 11.736 23.7857 11.522 23.5217 11.522Z" fill="currentColor"/>
<path d="M11.6652 16.4256H6.8078V15.4816C6.8078 13.4564 11.9241 12.421 11.9241 9.14717C11.9241 7.50271 10.645 6.22363 8.89388 6.22363C7.27979 6.22363 6.03123 7.28952 6.03123 8.75132C6.03123 9.20811 6.18348 9.37564 6.48802 9.37564C6.83823 9.37564 7.02095 9.16246 7.02095 8.9645C7.02095 7.7616 7.81276 7.16769 8.86341 7.16769C10.2643 7.16769 10.9191 8.21835 10.9191 9.17769C10.9191 11.8423 5.77234 12.9539 5.77234 15.4816V16.9586C5.77234 17.2023 6.04642 17.3546 6.24437 17.3546H11.6652C11.8631 17.3546 12.0306 17.1262 12.0306 16.8825C12.0306 16.6388 11.8631 16.4256 11.6652 16.4256Z" fill="currentColor"/>
<path d="M18.213 13.7762H17.3755V10.8374C17.3755 10.5785 17.1166 10.4567 16.873 10.4567C16.6141 10.4567 16.3706 10.5785 16.3706 10.8374V13.7762H13.3861L16.9035 6.83273C16.934 6.75655 16.9492 6.69566 16.9492 6.63477C16.9492 6.39112 16.6599 6.22363 16.462 6.22363C16.2793 6.22363 16.0965 6.31499 15.9899 6.52818L12.1679 14.0655C12.1223 14.1417 12.1071 14.233 12.1071 14.3244C12.1071 14.5528 12.2441 14.7356 12.503 14.7356H16.3706V16.9587C16.3706 17.2175 16.6143 17.3546 16.8731 17.3546C17.1167 17.3546 17.3756 17.2175 17.3756 16.9587V14.7356H18.213C18.4414 14.7356 18.5937 14.4919 18.5937 14.2483C18.5936 14.0198 18.4718 13.7762 18.213 13.7762Z" fill="currentColor"/>
</g>
<defs>
<clipPath id="clip0_4848_14659">
<rect width="24" height="24" fill="white"/>
</clipPath>
</defs>
</svg>
