<svg width="48" height="48" viewBox="0 0 48 48" fill="none" xmlns="http://www.w3.org/2000/svg">
<g clip-path="url(#clip0_2706_9597)">
<path d="M47.8205 23.7828L44.0631 17.1895C44.8099 15.9009 45.238 14.4055 45.238 12.8118C45.238 11.7435 45.0475 10.7034 44.6716 9.71322L45.9472 8.39819C46.819 7.49951 46.7973 6.06663 45.8984 5.19476C44.976 4.3001 43.5452 4.36685 42.6949 5.2436L41.9694 5.99163C40.8906 5.12229 39.6226 4.51976 38.2637 4.23794C37.8839 4.15929 37.5114 4.40341 37.4325 4.78357C37.3536 5.16382 37.5979 5.53601 37.9781 5.61485C39.0755 5.84247 40.1029 6.31891 40.986 7.00535L36.3058 11.8303C35.2309 10.7554 35.6285 11.1531 34.5548 10.0793C33.6037 9.12841 32.0437 9.21044 31.1956 10.2512C30.4711 11.1401 30.5229 12.455 31.3509 13.2832L34.7283 16.6605C35.6444 17.577 37.0991 17.5202 37.9564 16.6359L43.5667 10.8521C43.7429 11.487 43.8316 12.1427 43.8316 12.8118C43.8316 16.8693 40.5289 20.1633 36.4801 20.1633C32.4167 20.1633 29.1286 16.852 29.1286 12.8118C29.1286 9.34254 31.5903 6.31526 34.982 5.61344C35.3624 5.53469 35.6068 5.1626 35.5281 4.78244C35.4494 4.40201 35.0769 4.15788 34.6971 4.23635C30.6557 5.07269 27.7224 8.67926 27.7224 12.8118C27.7224 13.4644 27.7948 14.1004 27.9308 14.7126C27.4976 14.7126 7.36965 14.7126 6.67749 14.7126C5.85784 14.7126 5.09659 15.155 4.69074 15.8671L0.179492 23.7828C-0.334258 24.6844 0.315899 25.8053 1.35484 25.8053H5.05393V41.6756C5.05393 42.8349 5.99715 43.7782 7.15656 43.7782H24.0001H40.8435C42.0028 43.7782 42.946 42.8349 42.946 41.6756V34.8705C42.946 34.4821 42.6313 34.1673 42.2429 34.1673C41.8545 34.1673 41.5397 34.4821 41.5397 34.8705V41.6756C41.5397 42.0596 41.2274 42.372 40.8435 42.372H24.7032V18.0699L28.5723 24.859C28.9051 25.4429 29.5292 25.8055 30.2011 25.8055H41.5398V31.5893C41.5398 31.9777 41.8546 32.2924 42.243 32.2924C42.6314 32.2924 42.9461 31.9777 42.9461 31.5893V25.8055H46.6453C47.1328 25.8055 47.5699 25.5538 47.815 25.1323C48.0599 24.7107 48.0619 24.2063 47.8205 23.7828ZM1.4469 24.3992L5.9124 16.5636C6.06868 16.2894 6.36193 16.1191 6.67749 16.1191H22.79L18.2059 24.1627V24.1628C18.1229 24.3086 17.967 24.3992 17.7991 24.3992C17.3411 24.3992 1.81515 24.3992 1.4469 24.3992ZM23.2969 42.3721H7.15665C6.77274 42.3721 6.46037 42.0597 6.46037 41.6757V25.8054H17.7991C18.4711 25.8054 19.0951 25.4428 19.4279 24.859L23.297 18.0699V42.3721H23.2969ZM36.9471 15.657C36.6095 16.0051 36.058 16.0017 35.7229 15.6663C33.6513 13.5948 34.4171 14.3605 32.3455 12.2888C32.0127 11.956 32.0087 11.4106 32.3455 11.0738C32.6804 10.7388 33.2258 10.7389 33.5605 11.0738L35.8163 13.3296C36.0941 13.6072 36.5449 13.6037 36.8183 13.3219C37.6362 12.4788 42.6467 7.31313 43.7044 6.22272C44.0341 5.8826 44.5775 5.87257 44.9192 6.20426C45.2594 6.53416 45.2692 7.07744 44.9377 7.41916C43.9514 8.43616 37.9653 14.6073 36.9471 15.657ZM30.201 24.3992C30.0331 24.3992 29.8771 24.3085 29.7941 24.1627L25.21 16.1191H28.3709C29.7153 19.4114 32.9414 21.6062 36.5713 21.5686C39.1186 21.5427 41.5196 20.4204 43.1698 18.4626L46.5531 24.3993C46.3935 24.3992 30.5431 24.3992 30.201 24.3992Z" fill="currentColor"/>
</g>
<defs>
<clipPath id="clip0_2706_9597">
<rect width="48" height="48" fill="white"/>
</clipPath>
</defs>
</svg>
