<svg width="24" height="24" viewBox="0 0 24 24" fill="none" xmlns="http://www.w3.org/2000/svg">
<path d="M22.4514 5.31982H7.38305C6.52917 5.31982 5.83448 6.01456 5.83448 6.86839V7.42807H1.54856C0.694641 7.42807 0 8.12272 0 8.97664V17.1319C0 17.9857 0.694641 18.6804 1.54856 18.6804H16.6169C17.4708 18.6804 18.1655 17.9857 18.1655 17.1319V16.5722H22.4514C23.3053 16.5722 24 15.8775 24 15.0236V6.86839C24 6.01451 23.3054 5.31982 22.4514 5.31982ZM17.2094 17.1319C17.2094 17.4585 16.9436 17.7243 16.617 17.7243H1.54856C1.22194 17.7243 0.956156 17.4585 0.956156 17.1319V8.97664C0.956156 8.65001 1.22194 8.38423 1.54856 8.38423H16.6169C16.9436 8.38423 17.2093 8.65001 17.2093 8.97664V17.1319H17.2094ZM23.0438 15.0236C23.0438 15.3502 22.7781 15.616 22.4514 15.616H18.1655V14.2678H23.0438V15.0236ZM23.0438 13.3116H18.1655V11.9144H23.0438V13.3116ZM23.0438 10.9582H18.1655V8.97659C18.1655 8.12272 17.4708 7.42803 16.617 7.42803H6.79064V6.86839C6.79064 6.54171 7.05642 6.27598 7.38305 6.27598H22.4514C22.778 6.27598 23.0438 6.54176 23.0438 6.86839V10.9582H23.0438Z" fill="currentColor"/>
<path d="M4.39145 15.6157H2.46386C2.19981 15.6157 1.98578 15.8298 1.98578 16.0938C1.98578 16.3578 2.19981 16.5719 2.46386 16.5719H4.3914C4.65545 16.5719 4.86948 16.3578 4.86948 16.0938C4.86948 15.8298 4.65545 15.6157 4.39145 15.6157Z" fill="currentColor"/>
<path d="M7.9805 15.6157H6.05291C5.78886 15.6157 5.57483 15.8298 5.57483 16.0938C5.57483 16.3578 5.78886 16.5719 6.05291 16.5719H7.9805C8.24455 16.5719 8.45858 16.3578 8.45858 16.0938C8.45858 15.8298 8.24455 15.6157 7.9805 15.6157Z" fill="currentColor"/>
<path d="M11.5878 15.6157H9.66027C9.39622 15.6157 9.18219 15.8298 9.18219 16.0938C9.18219 16.3578 9.39622 16.5719 9.66027 16.5719H11.5878C11.8519 16.5719 12.0659 16.3578 12.0659 16.0938C12.0659 15.8298 11.8519 15.6157 11.5878 15.6157Z" fill="currentColor"/>
<path d="M15.6036 15.6157H15.5325C15.2684 15.6157 15.0544 15.8298 15.0544 16.0938C15.0544 16.3578 15.2684 16.5719 15.5325 16.5719H15.6036C15.8677 16.5719 16.0817 16.3578 16.0817 16.0938C16.0817 15.8298 15.8677 15.6157 15.6036 15.6157Z" fill="currentColor"/>
<path d="M14.1093 15.6157H13.2491C12.985 15.6157 12.771 15.8298 12.771 16.0938C12.771 16.3578 12.985 16.5719 13.2491 16.5719H14.1093C14.3734 16.5719 14.5874 16.3578 14.5874 16.0938C14.5874 15.8298 14.3734 15.6157 14.1093 15.6157Z" fill="currentColor"/>
<path d="M3.94699 9.34033H3.03996C2.43166 9.34033 1.93671 9.83524 1.93671 10.4436V11.3506C1.93671 11.9589 2.43161 12.4539 3.03996 12.4539H3.94699C4.55528 12.4539 5.05024 11.959 5.05024 11.3506V10.4436C5.05019 9.83519 4.55528 9.34033 3.94699 9.34033ZM4.09403 11.3506C4.09403 11.4317 4.02808 11.4976 3.94699 11.4976H3.03996C2.95886 11.4976 2.89291 11.4316 2.89291 11.3506V10.4435C2.89291 10.3624 2.95891 10.2965 3.03996 10.2965H3.94699C4.02808 10.2965 4.09403 10.3625 4.09403 10.4435V11.3506Z" fill="currentColor"/>
</svg>
