<svg width="48" height="48" viewBox="0 0 48 48" fill="none" xmlns="http://www.w3.org/2000/svg">
<g clip-path="url(#clip0_2706_9554)">
<path d="M45.5421 4.18622H25.8254V1.82531C25.8254 0.818812 25.0067 0 24.0001 0C22.9935 0 22.1748 0.818812 22.1748 1.82531V4.18622H2.4581C1.45001 4.18622 0.629883 5.00634 0.629883 6.01444V8.65509C0.629883 9.66319 1.45001 10.4833 2.4581 10.4833H2.87416V37.4431C2.87416 38.4789 3.7167 39.3215 4.75254 39.3215H13.2329L11.4876 45.6916C11.2211 46.6647 11.7926 47.6679 12.7658 47.9344C13.7364 48.2002 14.7424 47.6267 15.0084 46.6562L15.8292 43.6604H32.171L32.9917 46.6562V46.6563C33.2582 47.6289 34.2611 48.2012 35.2343 47.9344C36.2074 47.668 36.7791 46.6647 36.5125 45.6917L34.7673 39.3215H43.2476C44.2835 39.3215 45.126 38.4789 45.126 37.4431V25.84C45.126 25.4516 44.8113 25.1369 44.4229 25.1369C44.0345 25.1369 43.7197 25.4516 43.7197 25.84V37.4433C43.7197 37.7035 43.508 37.9153 43.2477 37.9153C42.5568 37.9153 26.1046 37.9153 25.4236 37.9153C25.0352 37.9153 24.7205 38.23 24.7205 38.6184C24.7205 39.0068 25.0352 39.3216 25.4236 39.3216H30.9823L31.7857 42.2542H16.2145L17.018 39.3216H22.142C22.5305 39.3216 22.8452 39.0068 22.8452 38.6184C22.8452 38.23 22.5305 37.9153 22.142 37.9153C22.0162 37.9153 4.92288 37.9153 4.75254 37.9153C4.49229 37.9153 4.28051 37.7035 4.28051 37.4433V10.4834H43.7196V22.5586C43.7196 22.947 44.0344 23.2617 44.4228 23.2617C44.8112 23.2617 45.1259 22.947 45.1259 22.5586V10.4834H45.542C46.5501 10.4834 47.3702 9.66328 47.3702 8.65519V6.01444C47.3703 5.00634 46.5501 4.18622 45.5421 4.18622ZM33.3091 39.3215L35.1561 46.0634C35.2174 46.2868 35.0863 46.5169 34.8627 46.5781C34.6376 46.6393 34.409 46.5068 34.3481 46.2848L32.4403 39.3215H33.3091ZM15.5599 39.3217L13.652 46.2848C13.5911 46.5076 13.3598 46.6391 13.1374 46.5782C12.9144 46.5171 12.7827 46.2874 12.844 46.0634L14.6911 39.3217H15.5599ZM23.5812 1.82531C23.5812 1.59431 23.7692 1.40634 24.0002 1.40634C24.2312 1.40634 24.4191 1.59431 24.4191 1.82531V4.18622H23.5812V1.82531ZM45.9639 8.65519C45.9639 8.88384 45.7707 9.07706 45.5421 9.07706C44.8803 9.07706 3.12935 9.07706 2.4582 9.07706C2.22954 9.07706 2.03632 8.88384 2.03632 8.65519V6.01444C2.03632 5.78578 2.22954 5.59256 2.4582 5.59256C4.28566 5.59256 44.4639 5.59256 45.5421 5.59256C45.7707 5.59256 45.9639 5.78578 45.9639 6.01444V8.65519Z" fill="currentColor"/>
<path d="M39.0434 33.2215H37.943V13.8523C37.943 13.2733 37.472 12.8022 36.8929 12.8022H33.7853C33.2063 12.8022 32.7352 13.2732 32.7352 13.8523V17.1469H29.9837C29.4047 17.1469 28.9336 17.6179 28.9336 18.1969V20.9727H26.1822C25.6032 20.9727 25.1321 21.4437 25.1321 22.0227V24.605H22.381C21.802 24.605 21.3309 25.076 21.3309 25.655V33.2216H20.2305C19.8421 33.2216 19.5273 33.5363 19.5273 33.9247C19.5273 34.3131 19.8421 34.6278 20.2305 34.6278C24.0966 34.6278 34.7938 34.6278 39.0434 34.6278C39.4318 34.6278 39.7465 34.3131 39.7465 33.9247C39.7466 33.5362 39.4319 33.2215 39.0434 33.2215ZM25.1325 33.2215H22.7372V26.0112H25.1324V33.2215H25.1325ZM28.9339 33.2215H26.5388C26.5388 32.2339 26.5388 23.6637 26.5388 22.3789H28.9339V33.2215ZM32.7353 33.2215H30.3402C30.3402 32.7987 30.3402 19.4903 30.3402 18.5532H32.7353V33.2215ZM36.5368 33.2215H34.1416C34.1416 32.5294 34.1416 14.9011 34.1416 14.2086H36.5368V33.2215Z" fill="currentColor"/>
<path d="M15.2644 14.3374H11.5601C11.1717 14.3374 10.8569 14.6522 10.8569 15.0405C10.8569 15.4288 11.1717 15.7437 11.5601 15.7437H15.2644C15.6528 15.7437 15.9675 15.4288 15.9675 15.0405C15.9675 14.6522 15.6528 14.3374 15.2644 14.3374Z" fill="currentColor"/>
<path d="M17.1167 17.8208H9.70801C9.3196 17.8208 9.00488 18.1355 9.00488 18.5239C9.00488 18.9123 9.3196 19.2271 9.70801 19.2271H17.1167C17.5051 19.2271 17.8198 18.9123 17.8198 18.5239C17.8198 18.1355 17.5051 17.8208 17.1167 17.8208Z" fill="currentColor"/>
<path d="M17.1167 21.3037H9.70801C9.3196 21.3037 9.00488 21.6184 9.00488 22.0068C9.00488 22.3952 9.3196 22.71 9.70801 22.71H17.1167C17.5051 22.71 17.8198 22.3952 17.8198 22.0068C17.8198 21.6184 17.5051 21.3037 17.1167 21.3037Z" fill="currentColor"/>
<path d="M17.1167 24.7866H9.70801C9.3196 24.7866 9.00488 25.1013 9.00488 25.4897C9.00488 25.8782 9.3196 26.1929 9.70801 26.1929H17.1167C17.5051 26.1929 17.8198 25.8782 17.8198 25.4897C17.8198 25.1013 17.5051 24.7866 17.1167 24.7866Z" fill="currentColor"/>
</g>
<defs>
<clipPath id="clip0_2706_9554">
<rect width="48" height="48" fill="white"/>
</clipPath>
</defs>
</svg>
