<svg width="48" height="48" viewBox="0 0 48 48" fill="none" xmlns="http://www.w3.org/2000/svg">
<path d="M17.6923 12.6255V11.0443C17.9119 11.0621 18.0897 11.1023 18.3526 11.2285C18.5393 11.3186 18.8747 11.5522 19.1163 11.1424C19.1552 11.0763 19.1837 11.0086 19.2016 10.9396C19.3038 10.5476 19.0754 10.3543 18.6805 10.2094C18.3759 10.0981 17.994 10.0516 17.6922 10.0516V9.81574C17.6922 9.68215 17.5272 9.58887 17.3868 9.58887C17.2348 9.58887 17.0813 9.6813 17.0813 9.81349V10.0651C16.384 10.1571 15.7753 10.4429 15.4822 11.0758C15.2957 11.4777 15.2776 12.1358 15.4957 12.5403C15.8256 13.1535 16.4246 13.372 17.0814 13.6229V15.4107C16.6113 15.3539 16.3882 15.1742 15.9314 14.8313C15.7076 14.6636 15.4893 14.7269 15.325 14.9576C15.1214 15.2438 15.1348 15.5002 15.3205 15.7504C15.6706 16.2225 16.4313 16.4755 17.0814 16.4755V16.7293C17.0814 16.8647 17.2376 16.9561 17.3869 16.9561C17.5254 16.9561 17.6923 16.8648 17.6923 16.7315V16.453C18.1954 16.3752 18.6043 16.176 18.9186 15.8556C19.2331 15.5352 19.3903 15.0996 19.3903 14.5484C19.3904 13.4186 18.6481 12.9731 17.6923 12.6255ZM17.1532 12.4279C16.6073 12.2098 16.4345 12.0341 16.4345 11.7001C16.4345 11.3084 16.7662 11.1324 17.1532 11.0712V12.4279ZM17.6204 15.4016V13.8384C18.1798 14.0834 18.2942 14.3499 18.2942 14.6648C18.2943 15.0842 18.016 15.3179 17.6204 15.4016Z" fill="currentColor"/>
<path d="M29.6749 2.521C26.3252 2.521 23.6001 5.24612 23.6001 8.59581C23.6001 11.9455 26.3252 14.6706 29.6749 14.6706C33.0246 14.6706 35.7497 11.9455 35.7497 8.59581C35.7497 5.24612 33.0246 2.521 29.6749 2.521ZM29.6749 13.2644C27.1006 13.2644 25.0064 11.1701 25.0064 8.5959C25.0064 6.02172 27.1006 3.92743 29.6749 3.92743C32.2492 3.92743 34.3434 6.02172 34.3434 8.5959C34.3434 11.17 32.2492 13.2644 29.6749 13.2644Z" fill="currentColor"/>
<path d="M30.0658 8.01487V6.43359C30.4157 6.46181 30.5958 6.55059 30.9373 6.72103C31.1287 6.81712 31.3497 6.76931 31.4898 6.53156C31.6324 6.28903 31.662 5.99559 31.4449 5.81484C31.1015 5.52975 30.5095 5.44078 30.0658 5.44078V5.2049C30.0658 5.07131 29.9008 4.97803 29.7604 4.97803C29.6084 4.97803 29.455 5.07046 29.455 5.20265V5.45428C29.2273 5.48428 29.0087 5.53828 28.7992 5.616C28.1339 5.86312 27.7121 6.39928 27.7121 7.20627C27.7121 8.2874 28.4923 8.64421 29.455 9.01209V10.7999C28.9848 10.7431 28.7618 10.5634 28.3049 10.2204C28.0812 10.0528 27.8628 10.1161 27.6986 10.3468C27.4949 10.6329 27.5083 10.8893 27.6941 11.1396C28.0426 11.6097 28.7943 11.8646 29.455 11.8646V12.1185C29.455 12.2539 29.6112 12.3453 29.7604 12.3453C29.899 12.3453 30.0658 12.254 30.0658 12.1206V11.8421C30.9713 11.7022 31.7638 11.1296 31.7638 9.93759C31.7639 8.84268 31.0723 8.38077 30.0658 8.01487ZM29.5268 7.81715C28.9809 7.59909 28.8081 7.4234 28.8081 7.08946C28.8081 6.69778 29.1399 6.52171 29.5268 6.46059V7.81715ZM29.9939 10.7909V9.22771C30.5533 9.47277 30.6677 9.73921 30.6677 10.0541C30.6678 10.4735 30.3896 10.7072 29.9939 10.7909Z" fill="currentColor"/>
<path d="M43.8942 31.7418C44.2825 31.7418 44.5973 31.4271 44.5973 31.0387V19.5851C44.5973 18.577 43.7771 17.7569 42.7691 17.7569H24.5917C24.9256 17.2221 25.2002 16.6516 25.4094 16.0572C26.6672 16.779 28.1237 17.1922 29.6749 17.1922C34.4148 17.1922 38.2711 13.336 38.2711 8.59612C38.271 3.85622 34.4147 0 29.6748 0C25.9347 0 22.7454 2.40141 21.5661 5.74303C20.2722 5.00016 18.8158 4.61081 17.3012 4.61081C12.5613 4.61081 8.70512 8.46694 8.70512 13.2069C8.70512 14.8279 9.16281 16.4003 10.0108 17.7569H5.23056C4.22247 17.7569 3.40234 18.5771 3.40234 19.5851V46.1718C3.40234 47.1799 4.22256 48 5.23056 48H22.3591C22.7474 48 23.0622 47.6853 23.0622 47.2969C23.0622 46.9085 22.7474 46.5938 22.3591 46.5938H5.23056C5.00191 46.5938 4.80869 46.4005 4.80869 46.1719V19.5851C4.80869 19.3565 5.00191 19.1632 5.23056 19.1632C6.75166 19.1632 41.1507 19.1632 42.7691 19.1632C42.9977 19.1632 43.191 19.3565 43.191 19.5851V27.4094H32.0944C29.0788 27.4094 26.6253 29.8628 26.6253 32.8785C26.6253 35.8942 29.0788 38.3476 32.0944 38.3476H43.1911V46.1719C43.1911 46.4005 42.9978 46.5938 42.7692 46.5938H25.6406C25.2523 46.5938 24.9375 46.9085 24.9375 47.2969C24.9375 47.6853 25.2523 48 25.6406 48H42.7691C43.7772 48 44.5973 47.1799 44.5973 46.1718V34.3201C44.5973 33.9317 44.2825 33.617 43.8942 33.617C43.5059 33.617 43.1911 33.9317 43.1911 34.3201V36.9412H32.0944C29.8543 36.9412 28.0317 35.1187 28.0317 32.8784C28.0317 30.6382 29.8542 28.8157 32.0944 28.8157H43.1911V31.0386C43.1911 31.4271 43.5059 31.7418 43.8942 31.7418ZM11.736 17.7566C10.6862 16.4743 10.1116 14.8705 10.1116 13.2067C10.1116 9.24234 13.3368 6.01697 17.3013 6.01697C18.6988 6.01697 20.0372 6.41259 21.1987 7.16494C21.1293 7.57706 21.0884 8.00484 21.0809 8.44809C20.0269 7.60903 18.7053 7.13184 17.3014 7.13184C13.9517 7.13184 11.2266 9.85697 11.2266 13.2067C11.2266 14.9867 12.0152 16.6296 13.2855 17.7566H11.736ZM18.3476 17.7568H16.2549C14.1519 17.2751 12.6328 15.373 12.6328 13.2068C12.6328 10.6327 14.727 8.53837 17.3012 8.53837C19.0935 8.53837 20.9582 9.65569 21.5298 11.3458C21.7717 12.0603 21.9698 12.2177 21.9698 13.2068C21.9697 15.3731 20.4506 17.2752 18.3476 17.7568ZM22.8664 17.7568H21.3172C22.3165 16.8703 23.0165 15.6644 23.2702 14.3239C23.5564 14.6449 23.8671 14.9462 24.2019 15.2234C23.9324 16.1459 23.4769 17.0105 22.8664 17.7568ZM22.4852 8.59612C22.4852 4.6515 25.6954 1.40634 29.6749 1.40634C33.6394 1.40634 36.8647 4.63163 36.8647 8.59612C36.8647 12.5606 33.6394 15.7859 29.6749 15.7859C25.6872 15.7858 22.4852 12.5339 22.4852 8.59612Z" fill="currentColor"/>
<path d="M34.7311 30.4224H32.289C30.9073 30.4224 29.7832 31.5465 29.7832 32.9282C29.7832 34.3099 30.9073 35.434 32.289 35.434H34.7311C36.1128 35.434 37.2369 34.3098 37.2369 32.9282C37.2369 31.5463 36.1127 30.4224 34.7311 30.4224ZM34.7311 34.0275H32.289C31.6828 34.0275 31.1895 33.5344 31.1895 32.9281C31.1895 32.3219 31.6827 31.8286 32.289 31.8286H34.7311C35.3373 31.8286 35.8305 32.3218 35.8305 32.9281C35.8305 33.5344 35.3373 34.0275 34.7311 34.0275Z" fill="currentColor"/>
</svg>
